<?xml version="1.0" standalone="no"?>
<!DOCTYPE svg PUBLIC "-//W3C//DTD SVG 20010904//EN"
 "http://www.w3.org/TR/2001/REC-SVG-20010904/DTD/svg10.dtd">
<svg version="1.0" xmlns="http://www.w3.org/2000/svg"
 width="600.000000pt" height="600.000000pt" viewBox="0 0 600.000000 600.000000"
 preserveAspectRatio="xMidYMid meet">
<metadata>
Created by potrace 1.16, written by Peter Selinger 2001-2019
</metadata>
<g transform="translate(0.000000,600.000000) scale(0.100000,-0.100000)"
fill="#000000" stroke="none">
<path d="M743 5685 c-204 -55 -375 -228 -428 -432 -23 -86 -23 -4420 0 -4506
54 -207 225 -378 432 -432 86 -23 4420 -23 4506 0 207 54 378 225 432 432 13
48 15 181 15 855 l0 798 -300 0 -300 0 0 -750 0 -750 -2100 0 -2100 0 0 2100
0 2100 750 0 750 0 0 300 0 300 -802 -1 c-657 0 -813 -3 -855 -14z"/>
<path d="M3788 5207 l492 -492 -860 -860 -860 -860 217 -217 218 -218 860 860
860 860 493 -492 492 -493 0 1203 0 1202 -1202 0 -1203 0 493 -493z"/>
</g>
</svg>
