<svg width="790" height="348" viewBox="0 0 790 348" fill="none" xmlns="http://www.w3.org/2000/svg">
<rect x="1" width="788" height="339" fill="#A5EFFF"/>
<circle cx="138.849" cy="137.849" r="97.8495" fill="#FFED91"/>
<path d="M775.875 246.312L788.921 239.789V340L1 346.957V345.559L4.7276 343.229L6.5914 339.968L8.92115 337.638L11.2509 333.91L14.0466 332.978V331.581V329.717L17.7742 328.319L18.7061 326.455H19.638L22.4337 325.523H26.1613H29.8889L32.6846 323.659H39.6738H42.4695H47.595L54.1183 322.728L60.1756 321.796H65.767H70.4265H78.3477L81.6093 322.728H86.2688L88.1326 323.659H95.5878H100.713L103.043 325.523H109.1L110.032 326.455H116.09L118.419 328.319H123.545L128.67 327.387L132.864 325.523L135.66 324.591H139.853L142.183 323.659L144.978 322.728L149.638 321.796H152.9L156.161 320.864L158.025 319.466H184.118L192.039 320.864L199.495 321.796L216.735 323.659H220.928L225.588 325.989H230.247L232.577 327.387L234.907 328.785H247.021L249.817 327.387H255.409L257.738 325.989L266.125 323.659L278.706 318.534L289.423 312.943L302.935 308.283L310.391 305.953H319.244L329.961 304.556L340.211 303.624H349.53L363.043 304.556H373.76L384.943 305.953H389.602H395.194L415.695 294.771L433.867 285.452L448.312 277.065L449.71 273.803H454.835L456.699 271.007H460.892L463.222 266.814L469.28 265.882L477.201 260.756L478.133 259.358L481.86 257.961L486.054 256.097L489.315 254.233H494.441L495.373 251.903H498.634L504.692 250.505L508.885 249.108H514.477H520.068L523.796 246.778H535.91L546.627 244.914L563.401 243.516H579.71H600.211L608.133 241.652H621.645L630.032 239.789L639.817 236.993L652.398 235.595H666.376L687.344 238.391L697.129 241.652H711.107L726.484 246.312L757.237 248.176H764.692L769.351 247.244L775.875 246.312Z" fill="#704242" stroke="black"/>
</svg>
