<svg width="790" height="432" viewBox="0 0 790 432" fill="none" xmlns="http://www.w3.org/2000/svg">
<rect x="1" width="788" height="432" fill="#A5EFFF"/>
<rect x="1" y="333" width="788" height="99" fill="#704242"/>
<ellipse cx="138.849" cy="136.12" rx="97.8495" ry="96.622" fill="#FFED91"/>
<path d="M775.875 243.222L788.921 236.78V335.735L1 342.604V341.224L4.7276 338.924L6.5914 335.703L8.92115 333.402L11.2509 329.721L14.0466 328.801V327.421V325.581L17.7742 324.2L18.7061 322.36H19.638L22.4337 321.44H26.1613H29.8889L32.6846 319.599H39.6738H42.4695H47.595L54.1183 318.679L60.1756 317.759H65.767H70.4265H78.3477L81.6093 318.679H86.2688L88.1326 319.599H95.5878H100.713L103.043 321.44H109.1L110.032 322.36H116.09L118.419 324.2H123.545L128.67 323.28L132.864 321.44L135.66 320.519H139.853L142.183 319.599L144.978 318.679L149.638 317.759H152.9L156.161 316.839L158.025 315.458H184.118L192.039 316.839L199.495 317.759L216.735 319.599H220.928L225.588 321.9H230.247L232.577 323.28L234.907 324.66H247.021L249.817 323.28H255.409L257.738 321.9L266.125 319.599L278.706 314.538L289.423 309.017L302.935 304.416L310.391 302.115H319.244L329.961 300.735L340.211 299.815H349.53L363.043 300.735H373.76L384.943 302.115H389.602H395.194L415.695 291.073L433.867 281.871L448.312 273.589L449.71 270.368H454.835L456.699 267.607H460.892L463.222 263.466L469.28 262.546L477.201 257.485L478.133 256.105L481.86 254.724L486.054 252.884L489.315 251.044H494.441L495.373 248.743H498.634L504.692 247.363L508.885 245.982H514.477H520.068L523.796 243.682H535.91L546.627 241.842L563.401 240.461H579.71H600.211L608.133 238.621H621.645L630.032 236.78L639.817 234.02L652.398 232.639H666.376L687.344 235.4L697.129 238.621H711.107L726.484 243.222L757.237 245.062H764.692L769.351 244.142L775.875 243.222Z" fill="#704242" stroke="#704242"/>
</svg>
