<svg width="1302" height="380" viewBox="0 0 1302 380" fill="none" xmlns="http://www.w3.org/2000/svg">
<rect x="1" y="0.824463" width="1300" height="339.211" fill="#A5EFFF"/>
<circle cx="330.892" cy="121.039" r="97.8495" fill="#FFED91"/>
<path d="M1300.44 339.978C1290.18 337.147 431.771 344.1 1 347.957V346.559L4.7276 344.229L6.5914 340.968L8.92115 338.638L11.2509 334.91L14.0466 333.979V332.581V330.717L17.7742 329.319L18.7061 327.455H19.638L22.4337 326.523H26.1613H29.8889L32.6846 324.66H39.6738H42.4695H47.595L54.1183 323.728L60.1756 322.796H65.767H70.4265H78.3477L81.6093 323.728H86.2688L88.1326 324.66H95.5878H100.713L103.043 326.523H109.1L110.032 327.455H116.09L118.419 329.319H123.545L128.67 328.387L132.864 326.523L135.66 325.591H139.853L142.183 324.66L144.978 323.728L149.638 322.796H152.9L156.161 321.864L158.025 320.466H184.118L192.039 321.864L199.495 322.796L216.735 324.66H220.928L225.588 326.989H230.247L232.577 328.387L234.907 329.785H247.021L249.817 328.387H255.409L257.738 326.989L266.125 324.66L278.706 319.534L289.423 313.943L302.935 309.283L310.391 306.954H319.244L329.961 305.556L340.211 304.624H349.53L363.043 305.556H373.76L384.943 306.954H389.602H395.194L415.695 295.771L433.867 286.452L448.312 278.065L449.71 274.803H454.835L456.699 272.007H460.892L463.222 267.814L469.28 266.882L477.201 261.756L478.133 260.359L481.86 258.961L486.054 257.097L489.315 255.233H494.441L495.373 252.903H498.634L504.692 251.505L508.885 250.108H514.477H520.068L523.796 247.778H535.91L546.627 245.914L563.401 244.516H579.71H600.211L608.133 242.652H621.645L630.032 240.789L639.817 237.993L652.398 236.595H666.376L687.344 239.391L697.129 242.652H711.107L726.484 247.312L757.237 249.176H764.692L769.351 248.244L775.875 247.312L788.921 240.789L806.161 233.799L815.946 228.674L838.778 216.559L848.563 214.229L857.882 212.832L866.269 210.502L871.86 209.104L878.383 207.706L892.828 203.047L899.817 198.853L914.262 192.33H919.387L938.025 185.807L945.946 180.681H951.072H959.925L967.38 177.885L976.699 175.09L985.086 171.828H989.745H1001.86L1009.32 167.635L1014.91 164.373L1022.36 162.043L1029.35 161.111L1032.61 164.373L1036.81 165.771L1038.67 164.373H1044.73H1056.38H1066.16L1074.55 167.635H1078.74L1083.87 171.828H1090.86L1095.98 175.09L1103.44 177.419H1127.67L1138.38 180.681L1157.02 179.283H1165.41H1183.58L1189.64 176.022L1195.7 177.419H1207.81H1213.4L1244.15 160.645H1251.14L1263.26 159.713H1272.11H1287.02L1294.01 155.986L1300.53 152.724C1300.08 214.581 1299.45 335.821 1300.44 339.978C1300.51 339.997 1300.54 340.016 1300.53 340.036C1300.5 340.121 1300.47 340.1 1300.44 339.978Z" fill="#704242"/>
<path d="M1 347.957C434.644 344.074 1301.65 337.054 1300.53 340.036C1299.42 343.018 1300.07 216.404 1300.53 152.724L1294.01 155.986L1287.02 159.713H1272.11H1263.26L1251.14 160.645H1244.15L1213.4 177.419H1207.81H1195.7L1189.64 176.022L1183.58 179.283H1165.41H1157.02L1138.38 180.681L1127.67 177.419H1103.44L1095.98 175.09L1090.86 171.828H1083.87L1078.74 167.635H1074.55L1066.16 164.373H1056.38H1044.73H1038.67L1036.81 165.771L1032.61 164.373L1029.35 161.111L1022.36 162.043L1014.91 164.373L1009.32 167.635L1001.86 171.828H989.745H985.086L976.699 175.09L967.38 177.885L959.925 180.681H951.072H945.946L938.025 185.807L919.387 192.33H914.262L899.817 198.853L892.828 203.047L878.383 207.706L871.86 209.104L866.269 210.502L857.882 212.832L848.563 214.229L838.778 216.559L815.946 228.674L806.161 233.799L788.921 240.789L775.875 247.312L769.351 248.244L764.692 249.176H757.237L726.484 247.312L711.108 242.652H697.129L687.344 239.391L666.376 236.595H652.398L639.817 237.993L630.032 240.789L621.645 242.652H608.133L600.211 244.516H579.71H563.401L546.627 245.914L535.91 247.778H523.796L520.068 250.108H514.477H508.885L504.692 251.505L498.634 252.903H495.373L494.441 255.233H489.315L486.054 257.097L481.86 258.961L478.133 260.359L477.201 261.756L469.28 266.882L463.222 267.814L460.892 272.007H456.699L454.835 274.803H449.71L448.312 278.065L433.867 286.452L415.695 295.771L395.194 306.954H389.602H384.943L373.76 305.556H363.043L349.53 304.624H340.211L329.961 305.556L319.244 306.954H310.391L302.935 309.283L289.423 313.943L278.706 319.534L266.125 324.66L257.738 326.989L255.409 328.387H249.817L247.021 329.785H234.907L232.577 328.387L230.247 326.989H225.588L220.928 324.66H216.735L199.495 322.796L192.039 321.864L184.118 320.466H158.025L156.161 321.864L152.9 322.796H149.638L144.978 323.728L142.183 324.66L139.853 325.591H135.659L132.864 326.523L128.67 328.387L123.545 329.319H118.419L116.09 327.455H110.032L109.1 326.523H103.043L100.713 324.66H95.5878H88.1326L86.2688 323.728H81.6093L78.3477 322.796H70.4265H65.767H60.1756L54.1183 323.728L47.595 324.66H42.4695H39.6738H32.6846L29.8889 326.523H26.1613H22.4337L19.638 327.455H18.7061L17.7742 329.319L14.0466 330.717V332.581V333.979L11.2509 334.91L8.92115 338.638L6.5914 340.968L4.7276 344.229L1 346.559V347.957Z" stroke="black"/>
<rect x="1" y="340.036" width="1300" height="39.1398" fill="#63A1FF"/>
</svg>
