<?xml version="1.0" standalone="no"?>
<!DOCTYPE svg PUBLIC "-//W3C//DTD SVG 20010904//EN"
 "http://www.w3.org/TR/2001/REC-SVG-20010904/DTD/svg10.dtd">
<svg version="1.0" xmlns="http://www.w3.org/2000/svg"
 width="225.000000pt" height="225.000000pt" viewBox="0 0 225.000000 225.000000"
 preserveAspectRatio="xMidYMid meet">
<metadata>
Created by potrace 1.16, written by Peter Selinger 2001-2019
</metadata>
<g transform="translate(0.000000,225.000000) scale(0.100000,-0.100000)"
fill="#000000" stroke="none">
<path d="M0 1125 l0 -1125 210 0 c162 0 210 3 210 13 0 20 60 500 65 525 l5
22 -175 0 -175 0 0 145 0 145 190 0 c188 0 190 0 195 22 4 21 65 504 65 520 0
5 -101 8 -225 8 l-225 0 0 145 0 145 245 0 c136 0 245 4 245 9 0 17 60 496 66
524 l6 27 -351 0 -351 0 0 -1125z"/>
<path d="M986 2213 c-6 -36 -66 -508 -66 -518 0 -3 124 -5 275 -5 l275 0 4 23
c5 22 66 515 66 530 0 4 -123 7 -274 7 l-274 0 -6 -37z"/>
<path d="M1830 2236 c0 -17 -58 -480 -65 -518 l-4 -28 174 0 175 0 0 -145 0
-145 -190 0 c-188 0 -190 0 -195 -22 -5 -24 -65 -500 -65 -518 0 -6 76 -10
225 -10 l225 0 0 -145 0 -145 -245 0 c-145 0 -245 -4 -245 -9 0 -15 -59 -481
-65 -518 l-6 -33 351 0 350 0 0 1125 0 1125 -210 0 c-173 0 -210 -2 -210 -14z"/>
<path d="M879 1378 c0 -13 -15 -137 -32 -275 l-33 -253 278 0 278 0 1 23 c0
12 15 136 32 275 l33 252 -278 0 -278 0 -1 -22z"/>
<path d="M776 538 c-5 -22 -66 -515 -66 -531 0 -4 123 -7 274 -7 l274 0 6 38
c6 33 66 509 66 518 0 2 -124 4 -275 4 l-275 0 -4 -22z"/>
</g>
</svg>
