<?xml version="1.0" standalone="no"?>
<!DOCTYPE svg PUBLIC "-//W3C//DTD SVG 20010904//EN"
 "http://www.w3.org/TR/2001/REC-SVG-20010904/DTD/svg10.dtd">
<svg version="1.0" xmlns="http://www.w3.org/2000/svg"
 width="225.000000pt" height="225.000000pt" viewBox="0 0 225.000000 225.000000"
 preserveAspectRatio="xMidYMid meet">
<metadata>
Created by potrace 1.16, written by Peter Selinger 2001-2019
</metadata>
<g transform="translate(0.000000,225.000000) scale(0.100000,-0.100000)"
fill="#000000" stroke="none">
<path d="M696 2223 c-6 -28 -66 -507 -66 -524 0 -5 -109 -9 -245 -9 l-245 0 0
-145 0 -145 225 0 c124 0 225 -3 225 -8 0 -16 -61 -499 -65 -519 -5 -23 -7
-23 -195 -23 l-190 0 0 -145 0 -145 175 0 175 0 -5 -22 c-5 -25 -65 -505 -65
-525 0 -10 35 -13 145 -13 80 0 145 3 145 7 0 16 61 509 66 530 l4 23 275 0
c151 0 275 -2 275 -4 0 -9 -60 -485 -66 -518 l-6 -38 146 0 145 0 6 33 c6 37
65 503 65 518 0 5 100 9 245 9 l245 0 0 145 0 145 -225 0 c-149 0 -225 4 -225
10 0 18 60 494 65 518 5 22 7 22 195 22 l190 0 0 145 0 145 -175 0 -174 0 4
28 c7 38 65 501 65 518 0 11 -28 14 -145 14 -80 0 -145 -3 -145 -7 0 -15 -61
-508 -66 -530 l-4 -23 -275 0 c-151 0 -275 2 -275 5 0 10 60 482 66 518 l6 37
-145 0 -145 0 -6 -27z m707 -1075 c-17 -139 -32 -263 -32 -275 l-1 -23 -278 0
-278 0 33 253 c17 138 32 262 32 275 l1 22 278 0 278 0 -33 -252z"/>
</g>
</svg>
