<?xml version="1.0" standalone="no"?>
<!DOCTYPE svg PUBLIC "-//W3C//DTD SVG 20010904//EN"
 "http://www.w3.org/TR/2001/REC-SVG-20010904/DTD/svg10.dtd">
<svg version="1.0" xmlns="http://www.w3.org/2000/svg"
 width="512.000000pt" height="512.000000pt" viewBox="0 0 512.000000 512.000000"
 preserveAspectRatio="xMidYMid meet">

<g transform="translate(0.000000,512.000000) scale(0.100000,-0.100000)"
fill="#000000" stroke="none">
<path d="M3676 5059 c-542 -75 -992 -481 -1093 -986 -26 -132 -24 -364 6 -511
30 -153 76 -291 149 -445 83 -175 134 -263 365 -627 253 -399 312 -498 407
-691 95 -194 150 -339 200 -533 46 -175 57 -191 130 -191 72 0 84 17 124 171
59 224 114 371 216 575 85 168 148 275 385 649 238 377 293 470 369 632 232
488 242 966 30 1326 -189 319 -512 547 -878 618 -100 19 -317 26 -410 13z"/>
</g>
</svg>
