<?xml version="1.0" standalone="no"?>
<!DOCTYPE svg PUBLIC "-//W3C//DTD SVG 20010904//EN"
 "http://www.w3.org/TR/2001/REC-SVG-20010904/DTD/svg10.dtd">
<svg version="1.0" xmlns="http://www.w3.org/2000/svg"
 width="1203.000000pt" height="1298.000000pt" viewBox="0 0 1203.000000 1298.000000"
 preserveAspectRatio="xMidYMid meet">
<metadata>
Created by potrace 1.16, written by Peter Selinger 2001-2019
</metadata>
<g transform="translate(0.000000,1298.000000) scale(0.100000,-0.100000)"
fill="#000000" stroke="none">
<path d="M0 6490 l0 -6490 6015 0 6015 0 0 6490 0 6490 -6015 0 -6015 0 0
-6490z m5500 6198 c35 -6 85 -20 110 -31 52 -25 141 -109 159 -152 43 -98 41
84 41 -3982 0 -2619 -3 -3863 -10 -3863 -6 0 -27 10 -48 23 -99 60 -193 92
-302 103 -41 3 -894 7 -1895 7 -1079 -1 -1825 3 -1831 8 -15 12 -17 7868 -2
7886 12 15 3679 16 3778 1z m4675 -3943 l0 -3950 -1820 -1 c-1702 -1 -1974 -4
-2014 -24 -9 -4 -34 -13 -56 -20 -53 -16 -113 -44 -150 -70 -16 -11 -36 -20
-42 -20 -17 0 -19 7715 -3 7725 6 3 10 17 10 30 0 13 4 26 9 30 5 3 12 19 16
35 6 26 82 114 126 145 39 28 110 56 159 63 30 5 890 8 1910 8 l1855 -1 0
-3950z m205 -6424 l0 -168 58 -6 c85 -9 186 -43 233 -80 74 -57 78 -66 94
-242 42 -443 56 -595 70 -755 8 -96 18 -208 21 -248 l7 -73 -49 3 -49 3 -17
200 c-18 219 -55 628 -64 716 l-6 55 -38 -18 c-56 -28 -139 -38 -322 -38
l-167 0 -5 -52 c-4 -29 -12 -330 -20 -668 -11 -535 -11 -617 2 -627 23 -19
117 -26 267 -20 l140 6 23 -40 c13 -23 22 -42 20 -43 -10 -8 -253 -36 -308
-36 -117 0 -348 40 -535 93 l-50 14 2 124 c4 152 24 415 82 1039 51 542 49
529 72 561 42 60 133 103 259 123 l75 12 3 167 2 167 100 0 100 0 0 -169z
m-8069 -90 c106 -151 165 -289 137 -317 -34 -34 -160 85 -276 261 -37 55 -72
104 -79 108 -36 22 11 35 117 31 44 -2 45 -3 101 -83z m517 -37 c44 -12 75
-29 100 -53 56 -54 142 -224 142 -278 0 -18 -6 -23 -26 -23 -48 0 -189 162
-278 319 -29 50 -33 62 -19 58 10 -2 46 -13 81 -23z m-1155 -26 c92 -115 187
-289 187 -342 0 -22 -5 -26 -27 -26 -41 0 -172 141 -244 261 -63 104 -63 112
4 136 45 16 42 17 80 -29z m6587 -1033 l0 -505 -305 0 -305 0 0 505 0 505 305
0 305 0 0 -505z m-5283 399 c43 -9 90 -16 106 -16 27 1 26 0 -15 -31 -24 -18
-77 -50 -118 -70 -89 -45 -184 -140 -249 -250 -38 -63 -47 -89 -67 -202 -3
-17 -18 -24 -81 -38 -204 -46 -308 64 -250 261 32 106 158 231 297 295 65 30
207 65 267 66 17 1 67 -6 110 -15z m508 -84 c84 -23 146 -53 176 -87 103 -118
106 -312 6 -373 -17 -11 -56 -25 -87 -31 -30 -6 -145 -33 -255 -61 -110 -28
-237 -59 -281 -70 -57 -15 -95 -19 -127 -14 -204 31 -194 291 20 501 62 62
193 131 273 145 64 11 217 5 275 -10z m6810 -1305 c88 0 211 3 274 7 63 4 112
6 109 3 -8 -9 -291 -65 -358 -71 -66 -7 -186 12 -360 55 l-75 19 125 -7 c69
-3 197 -6 285 -6z"/>
<path d="M3340 10896 c-25 -13 -79 -40 -120 -61 -83 -43 -153 -86 -158 -97 -2
-5 -8 -8 -13 -8 -6 0 -24 -13 -42 -30 -18 -16 -35 -30 -38 -30 -22 0 -219
-232 -219 -258 0 -6 -4 -12 -8 -14 -5 -1 -26 -39 -47 -83 -50 -105 -51 -109
-70 -185 -9 -36 -20 -81 -25 -100 -20 -77 -23 -177 -24 -710 -1 -557 2 -604
37 -742 33 -130 161 -327 258 -398 36 -26 132 -120 162 -158 17 -22 55 -94 75
-142 30 -72 32 -135 32 -959 l0 -841 130 0 130 0 0 2420 c0 1331 -3 2420 -7
2419 -5 0 -28 -10 -53 -23z m-202 -1506 c1 -663 -1 -1057 -7 -1063 -10 -10
-53 18 -118 76 -37 34 -117 151 -128 187 -4 14 -11 30 -15 35 -27 39 -31 135
-27 725 3 568 6 645 26 695 5 11 14 38 21 60 19 60 40 103 86 175 50 79 133
172 148 167 8 -3 12 -290 14 -1057z"/>
<path d="M3700 10138 c0 -872 -1 -857 114 -1062 23 -41 89 -112 155 -168 48
-39 196 -118 223 -118 10 0 29 -5 43 -12 l25 -11 0 -1344 0 -1343 135 0 135 0
0 1340 0 1339 28 15 c15 7 42 17 61 21 61 13 183 88 260 160 40 37 131 154
131 169 0 3 11 29 25 58 14 28 25 62 25 74 0 13 4 25 9 28 16 10 22 173 22
602 -1 236 -1 549 -1 697 l0 267 -130 0 -130 0 0 -737 c0 -523 -3 -747 -11
-772 -22 -68 -64 -144 -104 -187 -46 -50 -148 -114 -181 -114 -13 0 -26 -4
-29 -10 -8 -14 -180 -13 -224 1 -148 47 -242 134 -291 270 -19 52 -20 82 -20
801 l0 748 -135 0 -135 0 0 -712z"/>
<path d="M4260 10085 c0 -605 3 -765 13 -766 6 0 66 0 132 -1 l120 0 3 766 2
766 -135 0 -135 0 0 -765z"/>
<path d="M6940 11705 l0 -135 415 0 415 0 0 135 0 135 -415 0 -415 0 0 -135z"/>
<path d="M6940 11140 l0 -130 1250 0 c688 0 1253 -1 1258 -2 4 -2 8 57 10 130
l3 132 -1261 0 -1260 0 0 -130z"/>
<path d="M6940 10575 l0 -135 695 0 695 0 0 135 0 135 -695 0 -695 0 0 -135z"/>
<path d="M8910 10575 l0 -135 275 0 275 0 0 135 0 135 -275 0 -275 0 0 -135z"/>
<path d="M6940 10015 l0 -135 695 0 695 0 0 135 0 135 -695 0 -695 0 0 -135z"/>
<path d="M8910 10015 l0 -135 275 0 275 0 0 135 0 135 -275 0 -275 0 0 -135z"/>
<path d="M6940 9450 c0 -80 4 -130 10 -130 6 0 249 0 540 0 292 0 600 0 685 0
l155 0 0 130 0 130 -695 0 -695 0 0 -130z"/>
<path d="M8910 9450 c0 -71 3 -130 8 -130 4 0 126 -1 272 -1 l265 -1 3 131 3
131 -276 0 -275 0 0 -130z"/>
<path d="M6940 8043 l0 -133 415 0 415 0 0 130 0 130 -87 1 c-49 1 -235 2
-415 3 l-328 1 0 -132z"/>
<path d="M6940 7475 l0 -135 1260 0 1260 0 0 135 0 135 -1260 0 -1260 0 0
-135z"/>
<path d="M6940 6915 l0 -135 695 0 695 0 0 135 0 135 -695 0 -695 0 0 -135z"/>
<path d="M8910 6915 l0 -135 275 0 275 0 0 135 0 135 -275 0 -275 0 0 -135z"/>
<path d="M6944 6481 c-2 -2 -4 -62 -4 -133 l0 -128 695 0 695 0 0 133 0 132
-691 0 c-380 0 -693 -2 -695 -4z"/>
<path d="M8963 6482 l-53 -3 0 -130 0 -129 275 0 276 0 -3 132 -3 131 -220 1
c-121 1 -244 0 -272 -2z"/>
<path d="M6940 5785 l0 -135 695 0 695 0 0 135 0 135 -695 0 -695 0 0 -135z"/>
<path d="M8910 5785 l0 -135 275 0 275 0 0 135 0 135 -275 0 -275 0 0 -135z"/>
<path d="M9900 1722 c0 -4 -7 -72 -15 -152 -44 -422 -87 -951 -89 -1069 l-1
-105 43 -12 42 -13 0 27 c0 15 5 81 11 147 12 143 43 559 64 845 8 113 17 225
20 250 5 44 4 45 -35 67 -22 12 -40 18 -40 15z"/>
<path d="M10031 1472 c-6 -114 -18 -340 -27 -502 -8 -162 -19 -367 -23 -455
-5 -88 -6 -163 -3 -166 4 -4 24 -9 45 -12 l37 -6 0 37 c1 20 7 163 15 317 34
668 47 976 44 979 -2 2 -20 6 -40 9 l-36 5 -12 -206z"/>
</g>
</svg>
