<?xml version="1.0" standalone="no"?>
<!DOCTYPE svg PUBLIC "-//W3C//DTD SVG 20010904//EN"
 "http://www.w3.org/TR/2001/REC-SVG-20010904/DTD/svg10.dtd">
<svg version="1.0" xmlns="http://www.w3.org/2000/svg"
 width="512.000000pt" height="512.000000pt" viewBox="0 0 512.000000 512.000000"
 preserveAspectRatio="xMidYMid meet">
<metadata>
Created by potrace 1.16, written by Peter Selinger 2001-2019
</metadata>
<g transform="translate(0.000000,512.000000) scale(0.100000,-0.100000)"
fill="#000000" stroke="none">
<path d="M0 2560 l0 -2560 2560 0 2560 0 0 2560 0 2560 -2560 0 -2560 0 0
-2560z m3637 2253 c-592 -2 -1562 -2 -2155 0 -592 1 -107 2 1078 2 1185 0
1670 -1 1077 -2z m1110 -264 c18 -12 43 -38 53 -60 20 -38 20 -61 18 -1556
l-3 -1518 -23 -33 c-13 -18 -38 -40 -55 -50 -30 -16 -160 -17 -2177 -17 -2017
0 -2147 1 -2177 17 -17 10 -42 32 -55 50 l-23 33 -3 1515 c-3 1693 -8 1565 67
1616 l36 24 2154 0 2154 0 34 -21z m-1687 -3739 l0 -260 -500 0 -500 0 0 260
0 260 500 0 500 0 0 -260z m-67 -507 c-238 -2 -628 -2 -865 0 -238 1 -44 2
432 2 476 0 670 -1 433 -2z"/>
<path d="M2807 4405 c-60 -15 -97 -51 -146 -140 -66 -118 -255 -396 -362 -532
-122 -153 -313 -350 -422 -436 -43 -34 -172 -121 -285 -193 -222 -141 -262
-178 -285 -261 -10 -40 -18 -48 -87 -90 -96 -59 -108 -70 -132 -117 -15 -30
-19 -53 -16 -101 3 -57 10 -70 107 -225 57 -91 118 -180 136 -199 57 -59 173
-72 239 -26 11 8 26 15 33 15 6 0 118 -134 248 -297 140 -177 249 -305 268
-316 20 -12 44 -16 65 -13 41 6 614 358 647 398 47 56 24 145 -46 179 -19 10
-78 38 -132 63 -107 51 -199 129 -291 245 l-47 60 53 28 c335 173 702 269
1174 308 186 16 214 23 258 63 57 54 79 133 54 202 -12 37 -808 1302 -840
1337 -44 48 -120 67 -191 48z m437 -879 c180 -285 326 -519 324 -521 -2 -2
-73 -10 -159 -19 -441 -45 -823 -150 -1138 -311 -58 -30 -108 -52 -112 -50
-10 7 -252 395 -248 398 143 97 353 294 504 472 148 176 241 307 432 613 l14
24 28 -44 c15 -24 175 -276 355 -562z m-1405 -847 c61 -97 111 -181 111 -186
0 -16 -148 -103 -173 -103 -12 0 -31 7 -41 15 -40 30 -92 19 -186 -39 l-87
-55 -67 105 c-36 58 -66 109 -66 113 0 5 40 34 88 64 92 59 112 84 112 141 0
43 12 56 99 110 68 41 76 44 86 28 7 -9 62 -96 124 -193z m302 -446 c63 -86
185 -209 257 -260 34 -25 62 -46 62 -48 0 -5 -258 -165 -270 -168 -6 -1 -81
88 -169 198 l-159 200 57 30 c31 17 81 47 111 67 30 20 58 37 61 37 4 1 26
-25 50 -56z"/>
<path d="M3479 4287 c-29 -19 -37 -33 -53 -98 -17 -66 -18 -80 -6 -109 15 -36
62 -70 98 -70 31 0 79 26 92 49 5 11 17 49 25 86 14 60 14 69 -1 101 -30 63
-96 81 -155 41z"/>
<path d="M3739 3994 c-113 -68 -145 -96 -153 -135 -13 -69 50 -137 118 -126
46 7 240 131 254 162 22 47 15 84 -22 121 -50 50 -82 46 -197 -22z"/>
<path d="M3833 3658 c-44 -11 -73 -52 -73 -100 0 -61 45 -101 133 -118 77 -14
115 -5 142 36 31 48 13 128 -35 154 -38 20 -135 37 -167 28z"/>
<path d="M2503 910 c-36 -21 -63 -66 -63 -103 0 -39 41 -91 85 -106 35 -12 45
-11 77 2 41 17 78 68 78 107 0 56 -65 120 -122 120 -13 0 -37 -9 -55 -20z"/>
</g>
</svg>
