<?xml version="1.0" standalone="no"?>
<!DOCTYPE svg PUBLIC "-//W3C//DTD SVG 20010904//EN"
 "http://www.w3.org/TR/2001/REC-SVG-20010904/DTD/svg10.dtd">
<svg version="1.0" xmlns="http://www.w3.org/2000/svg"
 width="1249.000000pt" height="1250.000000pt" viewBox="0 0 1249.000000 1250.000000"
 preserveAspectRatio="xMidYMid meet">
<metadata>
Created by potrace 1.16, written by Peter Selinger 2001-2019
</metadata>
<g transform="translate(0.000000,1250.000000) scale(0.100000,-0.100000)"
fill="#000000" stroke="none">
<path d="M0 6250 l0 -6250 6245 0 6245 0 0 6250 0 6250 -6245 0 -6245 0 0
-6250z m6317 5669 c360 0 485 -3 503 -12 24 -12 25 -15 25 -127 l0 -115 -557
-3 -558 -2 0 125 c0 112 2 125 18 126 25 1 65 9 70 14 3 2 9 2 13 -1 5 -3 224
-5 486 -5z m2803 -5434 c0 -3741 -3 -4685 -12 -4685 -322 -4 -5593 2 -5599 6
-10 6 -13 9347 -2 9357 3 4 1268 7 2810 7 l2803 0 0 -4685z m-2675 -5045 c3
-5 28 -10 56 -10 37 0 49 -4 49 -15 0 -9 9 -15 24 -15 14 0 28 -4 31 -10 3 -5
15 -10 26 -10 10 0 19 -7 19 -15 0 -8 9 -15 20 -15 19 0 133 -104 124 -113 -3
-2 2 -10 11 -17 8 -7 15 -19 15 -26 0 -8 4 -14 10 -14 5 0 12 -11 16 -25 3
-14 10 -25 15 -25 5 0 9 -18 9 -41 0 -22 4 -38 9 -35 25 16 30 -191 6 -238 -8
-15 -15 -41 -15 -57 0 -16 -4 -29 -10 -29 -5 0 -10 -9 -10 -20 0 -11 -7 -23
-15 -26 -8 -4 -15 -14 -15 -24 0 -28 -129 -155 -177 -176 -24 -10 -43 -21 -43
-26 0 -4 -11 -8 -25 -8 -14 0 -25 -4 -25 -10 0 -5 -20 -10 -44 -10 -25 0 -48
-4 -51 -10 -8 -13 -155 -13 -155 0 0 6 -18 10 -39 10 -22 0 -43 5 -46 10 -3 6
-17 10 -29 10 -13 0 -29 7 -36 15 -7 8 -19 15 -26 15 -8 0 -14 6 -15 13 0 9
-2 9 -6 0 -3 -10 -8 -10 -19 1 -8 8 -14 19 -14 24 0 5 -11 15 -25 22 -14 7
-25 20 -25 27 0 8 -4 11 -10 8 -5 -3 -10 1 -10 9 0 9 -6 16 -13 16 -14 0 -54
60 -40 60 4 0 1 6 -7 13 -22 18 -40 54 -40 79 0 13 -7 32 -15 42 -11 15 -15
49 -15 136 0 87 4 121 15 136 8 10 15 31 15 47 0 15 5 27 10 27 6 0 10 7 10
15 0 9 7 18 15 21 8 4 15 15 15 26 0 12 11 31 24 43 14 13 22 26 19 29 -4 3
-1 6 6 6 14 0 71 57 71 71 0 6 5 7 10 4 6 -3 17 1 26 9 8 9 22 16 30 16 8 0
14 5 14 10 0 6 13 10 29 10 16 0 34 7 41 15 7 8 27 15 44 15 17 0 38 5 46 10
20 13 127 13 135 0z m1288 -1387 c-783 -2 -2063 -2 -2845 0 -783 1 -143 2
1422 2 1565 0 2205 -1 1423 -2z"/>
<path d="M5215 10040 c-107 -30 -159 -59 -228 -122 -16 -16 -33 -28 -37 -28
-11 0 -90 -103 -112 -145 -94 -177 -96 -348 -8 -605 62 -183 103 -276 212
-490 116 -227 230 -390 298 -425 56 -29 137 45 247 226 118 195 296 571 321
679 6 25 18 65 27 89 22 60 45 185 45 245 0 82 -43 228 -89 301 -65 104 -169
196 -273 244 -108 49 -290 63 -403 31z m305 -247 c75 -40 96 -58 135 -116 46
-69 61 -107 69 -174 12 -89 -37 -223 -103 -287 -118 -113 -285 -135 -427 -54
-115 64 -174 171 -174 313 0 86 11 122 61 195 43 64 77 93 139 121 75 34 237
35 300 2z"/>
<path d="M4640 8641 c-74 -23 -127 -69 -159 -141 -18 -40 -21 -66 -21 -237 0
-186 1 -193 20 -193 11 0 118 -18 237 -41 183 -34 392 -72 648 -119 28 -5 113
-21 190 -35 77 -14 164 -30 193 -36 28 -5 78 -14 110 -20 31 -6 69 -13 84 -16
26 -5 31 2 237 416 116 231 211 423 211 426 0 3 -128 5 -283 5 l-284 0 -12
-27 c-51 -115 -243 -403 -320 -481 -98 -99 -145 -98 -248 5 -71 73 -221 295
-298 445 l-30 58 -125 -1 c-69 0 -136 -4 -150 -8z"/>
<path d="M6571 8358 c-63 -161 -143 -366 -178 -456 -34 -89 -63 -164 -63 -166
0 -4 38 -12 115 -26 28 -5 138 -25 245 -45 107 -20 218 -40 245 -45 28 -5 113
-21 190 -35 77 -14 167 -30 199 -36 33 -5 63 -12 68 -15 12 -8 10 853 -2 917
-13 68 -53 125 -115 164 l-48 30 -271 3 -271 3 -114 -293z"/>
<path d="M4460 7374 c0 -191 4 -300 12 -326 15 -51 77 -121 131 -147 42 -20
58 -21 473 -21 l429 0 148 294 c81 162 147 297 147 299 0 5 -70 17 -215 37
-38 5 -101 14 -140 19 -38 6 -126 17 -195 26 -69 9 -152 20 -185 25 -33 5 -98
14 -145 20 -47 6 -114 15 -150 21 -146 21 -281 39 -295 39 -13 0 -15 -41 -15
-286z"/>
<path d="M6205 7421 c-8 -14 -205 -524 -205 -532 0 -5 249 -9 604 -9 663 0
639 -2 711 62 59 51 77 97 83 214 6 120 25 104 -163 129 -66 9 -147 20 -180
25 -33 5 -96 14 -140 20 -183 24 -468 62 -583 79 -68 9 -125 15 -127 12z"/>
<path d="M5760 5751 c-415 -38 -823 -231 -1115 -525 -93 -95 -141 -153 -216
-265 -202 -300 -309 -641 -309 -986 l0 -115 1812 0 1811 0 -6 148 c-17 388
-129 712 -353 1018 -70 95 -204 235 -217 227 -5 -3 -7 -1 -3 5 8 14 -111 115
-228 193 -203 135 -453 236 -686 278 -130 23 -361 33 -490 22z m120 -658 l0
-475 -47 6 c-27 3 -75 8 -108 12 -92 9 -232 40 -326 72 -125 44 -139 50 -139
65 0 8 16 63 35 123 91 289 236 529 383 638 40 29 58 35 108 38 105 5 94 60
94 -479z m216 477 c33 0 51 -9 101 -49 34 -27 64 -48 67 -45 3 2 4 1 1 -3 -3
-3 10 -25 28 -47 63 -77 119 -168 168 -270 47 -99 120 -300 132 -363 l6 -31
-82 -30 c-157 -57 -297 -88 -445 -98 l-102 -7 0 470 c0 258 3 473 8 477 4 4
23 5 42 2 19 -3 53 -6 76 -6z m-562 -56 c3 -8 2 -12 -4 -9 -20 13 -133 -150
-209 -303 -47 -92 -141 -352 -141 -386 0 -9 -2 -16 -5 -16 -3 0 -42 21 -87 47
-88 51 -207 136 -278 201 l-45 40 35 37 c50 53 184 156 283 219 98 61 241 126
355 161 94 29 89 28 96 9z m943 -30 c207 -74 390 -186 563 -343 l54 -50 -39
-36 c-111 -98 -356 -262 -376 -250 -4 3 -10 20 -14 38 -18 91 -111 337 -127
337 -6 0 -9 3 -5 6 14 14 -142 274 -164 274 -5 0 -9 5 -9 12 0 6 -10 22 -22
35 l-22 23 35 -6 c19 -4 75 -22 126 -40z m-1693 -528 c119 -104 276 -204 298
-190 7 4 8 3 4 -4 -4 -7 9 -19 33 -31 38 -20 39 -22 30 -53 -32 -111 -68 -413
-70 -590 l-2 -138 -390 0 -390 0 6 120 c14 257 106 532 252 756 64 98 136 193
148 193 4 1 41 -28 81 -63z m2423 2 c141 -175 254 -408 309 -637 21 -86 43
-252 44 -318 l0 -53 -388 0 -389 0 -6 164 c-7 172 -27 348 -54 481 -24 123
-28 114 62 163 91 50 203 128 296 207 35 30 67 54 70 55 3 0 28 -28 56 -62z
m-562 -396 c24 -138 43 -321 51 -475 l7 -137 -364 2 -364 3 0 290 0 290 120
11 c66 7 156 20 200 29 78 16 271 76 303 94 23 13 28 2 47 -107z m-1271 64
c147 -50 264 -74 411 -84 l100 -7 3 -292 2 -293 -366 0 -367 0 7 163 c4 89 14
209 22 267 18 133 46 290 52 290 2 0 63 -20 136 -44z"/>
<path d="M4324 3578 c55 -174 151 -481 179 -568 l33 -105 89 0 89 0 27 105
c16 58 43 162 61 232 17 70 35 125 39 122 4 -2 12 -26 18 -52 6 -26 17 -69 25
-97 8 -27 26 -95 41 -150 14 -55 31 -115 36 -133 l11 -33 86 3 86 3 27 80 c64
189 172 532 173 551 0 12 4 20 9 17 4 -2 7 2 7 9 0 7 3 23 6 36 6 22 5 22 -82
22 l-89 0 -44 -153 c-83 -287 -94 -322 -100 -307 -3 8 -30 114 -61 235 l-55
220 -90 3 -90 3 -29 -108 c-16 -59 -40 -151 -53 -203 -14 -52 -30 -112 -37
-133 l-11 -38 -39 138 c-21 76 -51 182 -67 237 -16 54 -29 100 -29 102 0 2
-40 4 -90 4 l-89 0 13 -42z"/>
<path d="M5402 3608 c3 -7 29 -87 57 -178 29 -91 77 -242 107 -336 30 -94 54
-176 54 -182 0 -8 28 -12 90 -12 50 0 90 1 90 3 0 11 120 460 124 464 3 3 9
-12 15 -33 12 -46 43 -162 77 -289 13 -49 27 -102 30 -117 6 -28 7 -28 94 -28
86 0 88 0 98 28 6 15 50 149 97 297 48 149 95 297 106 329 10 33 19 61 19 63
0 1 -40 3 -90 3 l-89 0 -20 -67 c-12 -38 -42 -143 -68 -236 -26 -92 -50 -164
-54 -160 -3 5 -30 103 -58 218 -29 116 -55 218 -57 228 -5 14 -18 17 -94 17
l-89 0 -12 -42 c-6 -24 -13 -51 -14 -60 -2 -9 -11 -41 -19 -70 -22 -73 -63
-226 -71 -266 -4 -19 -10 -30 -15 -25 -4 4 -24 67 -44 138 -19 72 -48 174 -63
228 l-28 97 -89 0 c-66 0 -87 -3 -84 -12z"/>
<path d="M6490 3612 c0 -4 21 -72 46 -152 90 -287 153 -489 165 -527 l10 -33
89 0 88 0 11 48 c6 26 25 97 41 157 16 61 37 139 46 175 9 36 20 69 24 73 4 5
15 -17 24 -50 9 -32 22 -80 30 -108 8 -27 26 -97 42 -155 15 -58 31 -106 35
-108 4 -2 5 -10 2 -18 -4 -11 11 -14 85 -14 l91 0 29 93 c80 247 195 603 199
615 4 9 -17 12 -85 12 l-91 0 -25 -82 c-14 -46 -44 -149 -67 -230 -23 -82 -45
-148 -49 -148 -3 0 -18 46 -32 103 -14 56 -41 160 -59 230 l-32 128 -90 -3
-91 -3 -22 -85 c-94 -365 -98 -379 -108 -369 -2 2 -32 103 -65 223 -34 120
-64 223 -67 227 -6 11 -174 12 -174 1z"/>
</g>
</svg>
