<?xml version="1.0" standalone="no"?>
<!DOCTYPE svg PUBLIC "-//W3C//DTD SVG 20010904//EN"
 "http://www.w3.org/TR/2001/REC-SVG-20010904/DTD/svg10.dtd">
<svg version="1.0" xmlns="http://www.w3.org/2000/svg"
 width="1249.000000pt" height="1250.000000pt" viewBox="0 0 1249.000000 1250.000000"
 preserveAspectRatio="xMidYMid meet">
<metadata>
Created by potrace 1.16, written by Peter Selinger 2001-2019
</metadata>
<g transform="translate(0.000000,1250.000000) scale(0.100000,-0.100000)"
fill="#000000" stroke="none">
<path d="M0 6250 l0 -6250 6245 0 6245 0 0 6250 0 6250 -6245 0 -6245 0 0
-6250z m9315 6220 c3 -5 17 -10 31 -10 22 0 156 -65 191 -93 65 -52 131 -121
169 -178 24 -37 44 -70 44 -73 0 -4 11 -24 25 -46 14 -22 25 -48 25 -59 0 -11
4 -22 9 -25 5 -3 11 -23 14 -43 3 -21 10 -58 17 -83 17 -65 17 -11154 0
-11220 -6 -25 -14 -58 -16 -75 -9 -55 -59 -161 -120 -255 -51 -77 -75 -105
-129 -145 -22 -17 -49 -38 -60 -48 -11 -10 -30 -20 -42 -23 -13 -4 -23 -10
-23 -15 0 -5 -8 -9 -17 -9 -10 0 -27 -7 -37 -15 -11 -8 -32 -15 -47 -15 -15 0
-31 -4 -34 -10 -9 -14 -5971 -14 -5980 0 -3 6 -19 10 -34 10 -15 0 -36 7 -47
15 -10 8 -27 15 -36 15 -10 0 -18 5 -18 10 0 6 -8 10 -17 10 -31 1 -184 138
-234 210 -35 51 -99 180 -99 201 0 10 -4 20 -9 23 -5 3 -12 23 -16 43 -4 21
-11 43 -16 49 -14 17 -6 11247 8 11302 6 24 16 49 22 55 6 6 11 19 11 29 0 20
74 162 110 210 27 36 112 122 149 151 40 32 173 97 197 97 13 0 26 5 29 10 4
7 1012 10 2990 10 1978 0 2986 -3 2990 -10z"/>
<path d="M3390 12458 c-87 -17 -156 -42 -208 -75 -29 -18 -55 -33 -59 -33 -11
0 -163 -160 -163 -171 0 -6 -11 -25 -25 -43 -14 -18 -25 -36 -25 -39 0 -4 -11
-30 -23 -59 -35 -77 -44 -112 -62 -220 -13 -87 -15 -680 -15 -5568 0 -4888 2
-5481 15 -5568 18 -108 27 -143 62 -220 12 -29 23 -55 23 -58 0 -32 166 -225
225 -261 99 -62 163 -85 275 -102 113 -16 5807 -10 5885 6 80 18 174 59 227
100 41 32 134 127 160 163 39 55 89 156 111 230 39 124 38 8 34 5745 -2 3058
-7 5578 -11 5600 -4 22 -11 49 -16 60 -4 11 -16 43 -26 70 -9 28 -28 67 -41
87 -12 21 -23 42 -23 48 0 5 -4 10 -10 10 -5 0 -10 6 -10 14 0 16 -149 176
-164 176 -5 0 -23 10 -40 23 -54 39 -128 67 -232 86 -76 14 -5795 13 -5864 -1z
m3428 -566 c9 -6 12 -36 10 -113 l-3 -104 -542 -3 -542 -2 -6 33 c-4 18 -5 66
-3 107 4 61 7 75 24 81 26 10 1046 11 1062 1z m2287 -5412 l0 -4675 -2795 0
-2795 0 -3 4665 c-1 2566 0 4671 3 4678 3 10 568 12 2797 10 l2793 -3 0 -4675z
m-2590 -5071 c5 -5 16 -9 25 -9 8 0 37 -11 64 -25 137 -69 227 -183 267 -337
23 -89 23 -122 4 -202 -22 -85 -33 -112 -78 -183 -60 -97 -158 -169 -280 -207
-68 -21 -257 -20 -279 2 -6 6 -20 12 -29 12 -9 0 -27 6 -40 13 -193 103 -297
276 -286 473 8 144 48 235 147 334 88 87 146 117 270 140 53 10 201 2 215 -11z"/>
<path d="M7319 8975 c-32 -17 -53 -65 -44 -97 4 -13 77 -93 161 -179 170 -172
176 -185 131 -247 -53 -71 -300 -332 -416 -439 -396 -366 -757 -608 -1271
-852 -166 -79 -228 -105 -445 -186 -419 -157 -791 -247 -1329 -323 -177 -25
-190 -29 -208 -53 -19 -25 -19 -28 -3 -90 26 -101 34 -109 108 -109 148 0 719
61 852 90 22 5 72 14 110 20 132 20 480 99 630 142 969 278 1713 686 2326
1276 88 85 134 122 150 122 18 0 64 -40 174 -153 83 -85 160 -158 173 -162 13
-4 36 -2 52 5 62 26 60 5 60 615 0 603 0 598 -55 623 -41 19 -1121 16 -1156
-3z"/>
<path d="M7930 7050 c-20 -20 -20 -33 -20 -1625 0 -1592 0 -1605 20 -1625 19
-19 33 -20 425 -20 l406 0 25 25 24 24 -2 1606 c-3 1577 -3 1607 -22 1621 -16
12 -91 14 -428 14 -395 0 -409 -1 -428 -20z"/>
<path d="M6623 6460 c-12 -5 -26 -18 -32 -29 -8 -14 -11 -416 -11 -1311 l0
-1291 25 -24 24 -25 404 0 404 0 21 23 22 23 0 1296 c0 1261 -1 1296 -19 1319
l-19 24 -399 2 c-219 1 -408 -2 -420 -7z"/>
<path d="M5326 5849 l-26 -20 0 -1005 c0 -991 0 -1004 20 -1024 19 -19 33 -20
425 -20 l406 0 24 25 25 24 0 996 0 996 -25 24 -24 25 -399 0 c-389 0 -400 -1
-426 -21z"/>
<path d="M3994 5330 c-56 -23 -54 8 -54 -778 l0 -723 25 -24 24 -25 399 0
c389 0 400 1 426 21 l26 20 0 738 c0 737 0 738 -21 757 -20 18 -43 19 -413 21
-215 1 -401 -2 -412 -7z"/>
</g>
</svg>
