<?xml version="1.0" standalone="no"?>
<!DOCTYPE svg PUBLIC "-//W3C//DTD SVG 20010904//EN"
 "http://www.w3.org/TR/2001/REC-SVG-20010904/DTD/svg10.dtd">
<svg version="1.0" xmlns="http://www.w3.org/2000/svg"
 width="1250.000000pt" height="1249.000000pt" viewBox="0 0 1250.000000 1249.000000"
 preserveAspectRatio="xMidYMid meet">
<metadata>
Created by potrace 1.16, written by Peter Selinger 2001-2019
</metadata>
<g transform="translate(0.000000,1249.000000) scale(0.100000,-0.100000)"
fill="#000000" stroke="none">
<path d="M0 6245 l0 -6245 1671 0 c1111 0 1668 3 1664 10 -3 6 -19 10 -35 10
-16 0 -31 4 -35 9 -3 5 -19 12 -35 16 -17 4 -30 11 -30 16 0 5 -5 9 -12 9 -29
0 -208 156 -208 183 0 4 -7 7 -15 7 -8 0 -15 7 -15 15 0 8 -4 15 -10 15 -5 0
-10 6 -10 13 0 6 -16 43 -35 80 -19 38 -35 76 -35 85 0 9 -7 26 -15 36 -8 11
-15 32 -15 47 0 15 -4 31 -10 34 -7 4 -10 1898 -10 5650 0 3752 3 5646 10
5650 6 3 10 19 10 34 0 16 7 34 15 41 8 7 15 21 15 31 0 11 5 28 10 39 59 117
72 140 81 140 5 0 9 4 9 10 0 19 85 110 147 158 56 44 169 102 197 102 12 0
28 6 35 13 9 9 622 12 2996 12 2374 0 2987 -3 2997 -12 6 -7 22 -13 34 -13 24
0 147 -60 174 -85 9 -8 21 -15 26 -15 16 0 67 -51 109 -110 22 -30 42 -57 46
-60 3 -3 18 -27 33 -55 16 -27 34 -57 42 -66 8 -8 14 -25 14 -37 0 -12 4 -30
9 -40 18 -35 33 -109 42 -202 11 -114 12 -10941 1 -11080 -4 -52 -13 -105 -20
-117 -6 -12 -12 -35 -12 -52 0 -17 -4 -31 -10 -31 -5 0 -10 -9 -10 -20 0 -19
-75 -171 -90 -180 -4 -3 -10 -15 -14 -27 -9 -27 -125 -143 -144 -143 -7 0 -15
-7 -18 -15 -4 -8 -12 -15 -20 -15 -8 0 -14 -4 -14 -10 0 -5 -6 -10 -14 -10 -7
0 -34 -11 -60 -25 -26 -14 -58 -25 -71 -25 -13 0 -27 -4 -30 -10 -4 -7 525
-10 1579 -10 l1586 0 0 6245 0 6245 -6250 0 -6250 0 0 -6245z"/>
<path d="M3377 12435 c-136 -30 -249 -95 -342 -198 -43 -46 -115 -148 -115
-161 0 -3 -11 -29 -23 -58 -35 -77 -44 -112 -62 -220 -13 -87 -15 -680 -15
-5570 0 -4867 2 -5484 15 -5568 17 -106 27 -141 62 -218 12 -29 23 -55 23 -58
0 -32 189 -254 216 -254 6 0 17 -6 23 -13 25 -31 144 -77 247 -96 43 -8 866
-11 2930 -11 3171 0 2948 -5 3104 63 114 50 254 195 315 327 9 19 20 42 24 50
10 19 35 108 50 175 16 70 16 11125 0 11205 -12 60 -38 156 -49 180 -8 16 -27
54 -62 120 -21 40 -134 163 -184 201 -61 47 -167 89 -270 108 -93 17 -5808 13
-5887 -4z m3458 -572 c14 -14 17 -32 13 -103 -2 -47 -7 -91 -12 -98 -5 -9
-129 -12 -541 -12 -621 0 -559 -14 -553 127 3 74 6 87 23 94 11 4 253 8 537 8
472 1 518 0 533 -16z m2280 -5403 l0 -4675 -2795 0 -2795 0 -3 4655 c-1 2560
0 4665 3 4678 l5 22 2793 -2 2792 -3 0 -4675z m-2590 -5071 c5 -5 17 -9 27 -9
67 0 241 -151 290 -251 14 -30 34 -91 44 -137 15 -72 16 -91 5 -145 -45 -219
-164 -358 -360 -420 -100 -32 -254 -20 -351 26 -42 20 -133 88 -166 125 -80
88 -128 225 -121 348 5 94 16 140 54 213 30 60 153 191 178 191 8 0 15 3 15 8
0 8 74 42 93 42 7 0 17 4 23 9 20 21 247 20 269 0z"/>
<path d="M4762 9651 c-266 -66 -472 -272 -546 -546 -21 -80 -21 -84 -21 -1295
0 -1143 1 -1220 18 -1293 68 -287 320 -522 607 -567 55 -8 455 -10 1490 -8
l1415 3 77 26 c275 94 464 311 514 589 11 60 13 309 13 1240 1 707 -3 1192 -9
1233 -36 249 -190 455 -425 568 -151 73 -65 69 -1643 68 -1326 0 -1422 -2
-1490 -18z m2912 -495 c46 -19 104 -72 129 -120 l22 -41 0 -1185 0 -1185 -25
-50 c-28 -56 -91 -109 -148 -125 -25 -6 -490 -10 -1393 -10 -1527 0 -1415 -6
-1495 77 -24 24 -49 60 -56 81 -10 30 -13 263 -13 1207 0 644 3 1182 7 1197
13 44 83 123 129 146 l44 21 1383 1 c1151 0 1388 -2 1416 -14z"/>
<path d="M5992 9038 c-5 -7 -19 -48 -31 -91 -36 -132 -83 -207 -129 -207 -32
0 -86 41 -119 91 -18 27 -33 39 -49 39 -29 0 -47 -31 -38 -65 12 -48 -6 -136
-33 -163 -20 -20 -31 -24 -65 -19 -22 3 -63 17 -91 31 -27 15 -58 24 -68 21
-43 -14 -32 -41 96 -225 70 -99 125 -187 122 -194 -3 -7 -27 -19 -52 -25 -185
-47 -275 -184 -245 -374 6 -39 12 -105 13 -147 3 -88 31 -148 96 -199 49 -39
74 -39 101 -1 27 38 73 51 139 37 44 -8 55 -7 68 6 62 62 -147 108 -226 49
-17 -12 -35 -22 -40 -22 -6 0 -22 20 -37 45 -23 40 -26 54 -21 103 3 34 -1 81
-10 116 -42 166 51 305 206 310 42 1 46 3 74 51 43 75 94 122 172 161 91 45
177 58 335 51 157 -8 243 -26 345 -76 126 -60 210 -146 254 -259 11 -27 41
-175 67 -328 25 -154 51 -285 56 -291 6 -7 28 -13 49 -13 33 0 41 -4 49 -26 8
-20 16 -25 38 -22 23 2 28 8 30 36 4 42 -18 68 -68 83 l-37 11 -37 227 c-56
338 -71 386 -163 504 l-45 58 87 115 c98 131 102 138 84 160 -10 12 -26 14
-84 9 -96 -9 -150 6 -197 56 -52 54 -71 125 -72 263 -1 89 -4 111 -17 119 -9
6 -23 8 -30 5 -8 -3 -43 -61 -79 -128 -103 -195 -154 -237 -216 -179 -33 31
-77 125 -103 216 -11 40 -22 77 -26 83 -9 14 -40 13 -53 -2z"/>
<path d="M6183 8285 c-20 -9 -33 -21 -33 -33 0 -34 19 -42 94 -35 70 5 72 5
119 -31 55 -42 90 -45 95 -8 5 32 -31 69 -93 98 -57 27 -132 31 -182 9z"/>
<path d="M5935 8226 c-75 -34 -101 -102 -67 -179 l20 -45 -24 -23 c-43 -41
-24 -129 28 -129 24 0 41 27 34 55 -5 21 -1 27 29 39 46 19 53 41 26 74 -33
42 -54 89 -48 106 4 9 27 25 52 36 41 18 46 23 43 47 -2 23 -8 28 -33 30 -16
2 -43 -3 -60 -11z"/>
<path d="M6463 8058 c-25 -33 -23 -40 30 -96 70 -73 111 -138 137 -218 22 -65
39 -81 71 -64 25 14 24 36 -5 114 -32 84 -80 158 -146 224 -54 54 -71 61 -87
40z"/>
<path d="M5470 7815 c-39 -47 110 -157 271 -201 84 -23 251 -23 337 -1 35 9
92 17 128 17 59 0 67 -3 103 -35 42 -38 75 -45 90 -18 13 24 -11 67 -55 97
l-36 24 30 16 c17 9 35 16 39 16 4 0 20 -22 36 -49 15 -27 55 -79 88 -116 72
-80 90 -117 98 -204 7 -71 26 -96 59 -75 13 9 17 25 16 80 0 90 -31 157 -112
248 -34 38 -78 101 -98 138 -19 38 -43 72 -51 75 -9 4 -49 -12 -93 -35 -300
-162 -576 -161 -769 4 -43 37 -62 42 -81 19z"/>
<path d="M6148 7511 c-43 -14 -82 -47 -103 -85 -16 -29 -17 -37 -6 -50 21 -25
47 -19 75 17 l26 32 16 -23 c20 -29 55 -26 69 6 11 26 20 27 59 7 43 -23 68
-18 110 19 31 29 36 38 27 54 -15 29 -35 32 -66 12 -26 -17 -31 -17 -57 -4
-36 19 -114 26 -150 15z"/>
<path d="M5612 7466 c-23 -8 -57 -25 -75 -38 -18 -14 -44 -28 -59 -31 -15 -4
-30 -16 -33 -28 -18 -54 66 -68 122 -19 35 31 57 37 68 20 9 -15 45 -12 51 5
9 22 28 18 63 -11 59 -50 112 -3 59 53 -48 52 -125 71 -196 49z"/>
<path d="M6968 7343 c-8 -10 -28 -41 -43 -70 -34 -64 -113 -154 -161 -184 -19
-12 -60 -29 -91 -38 -69 -21 -88 -44 -56 -71 26 -21 72 -14 151 22 87 41 220
193 261 300 17 46 -29 77 -61 41z"/>
<path d="M5509 7224 c-24 -29 50 -240 135 -385 65 -111 131 -178 235 -238 l89
-51 145 0 c127 0 154 3 221 25 91 30 199 83 279 137 122 83 152 124 107 148
-23 12 -24 12 -100 -46 -30 -22 -77 -54 -105 -70 l-50 -29 48 55 c54 63 61 96
21 106 -23 6 -34 -2 -86 -60 -124 -137 -276 -215 -395 -203 -76 8 -210 92
-276 172 -61 77 -133 216 -172 335 -17 52 -34 101 -38 108 -11 17 -42 15 -58
-4z"/>
<path d="M5836 7178 c-21 -29 -20 -107 0 -136 33 -47 94 -45 94 2 0 13 -10 30
-21 38 -20 13 -21 17 -10 51 10 30 10 41 1 52 -18 22 -47 18 -64 -7z"/>
<path d="M6050 6948 c-14 -6 -44 -10 -68 -9 -93 4 -160 -43 -141 -98 12 -33
62 -87 100 -106 90 -47 176 -38 239 25 45 45 94 135 86 156 -14 37 -155 58
-216 32z"/>
<path d="M4393 5841 c-77 -36 -73 14 -73 -850 l0 -769 25 -30 c55 -65 0 -62
999 -62 999 0 956 -3 996 62 20 32 20 48 20 801 0 864 5 808 -75 847 -40 19
-65 20 -946 20 -866 0 -906 -1 -946 -19z m1777 -846 l0 -675 -830 0 -830 0 0
675 0 675 830 0 830 0 0 -675z"/>
<path d="M5700 5451 c-19 -10 -48 -35 -64 -55 -26 -31 -31 -48 -34 -104 -3
-60 0 -72 26 -113 52 -81 150 -110 237 -70 185 84 128 361 -75 361 -35 0 -68
-7 -90 -19z"/>
<path d="M5064 5339 c-24 -12 -18 1 -214 -427 -162 -354 -167 -372 -114 -392
15 -6 213 -10 482 -10 500 0 502 0 502 57 0 32 -217 490 -247 521 -12 12 -27
22 -33 22 -6 0 -30 -18 -55 -41 -24 -22 -48 -38 -53 -35 -5 3 -46 68 -91 145
-45 77 -88 144 -94 149 -20 17 -61 22 -83 11z"/>
<path d="M6483 5841 c-77 -36 -73 14 -73 -850 l0 -769 25 -30 c55 -65 0 -62
999 -62 999 0 956 -3 996 62 20 32 20 48 20 801 0 864 5 808 -75 847 -40 19
-65 20 -946 20 -866 0 -906 -1 -946 -19z m1777 -846 l0 -675 -830 0 -830 0 0
675 0 675 830 0 830 0 0 -675z"/>
<path d="M7790 5451 c-19 -10 -48 -35 -64 -55 -26 -31 -31 -48 -34 -104 -3
-60 0 -72 26 -113 52 -81 150 -110 237 -70 185 84 128 361 -75 361 -35 0 -68
-7 -90 -19z"/>
<path d="M7154 5339 c-24 -12 -18 1 -214 -427 -162 -354 -167 -372 -114 -392
15 -6 213 -10 482 -10 502 0 502 0 502 58 0 35 -224 501 -251 525 -29 24 -33
22 -85 -25 -38 -35 -47 -39 -58 -27 -7 8 -47 73 -90 146 -43 73 -83 136 -89
142 -20 16 -61 21 -83 10z"/>
</g>
</svg>
