<?xml version="1.0" standalone="no"?>
<!DOCTYPE svg PUBLIC "-//W3C//DTD SVG 20010904//EN"
 "http://www.w3.org/TR/2001/REC-SVG-20010904/DTD/svg10.dtd">
<svg version="1.0" xmlns="http://www.w3.org/2000/svg"
 width="1231.000000pt" height="1268.000000pt" viewBox="0 0 1231.000000 1268.000000"
 preserveAspectRatio="xMidYMid meet">
<metadata>
Created by potrace 1.16, written by Peter Selinger 2001-2019
</metadata>
<g transform="translate(0.000000,1268.000000) scale(0.100000,-0.100000)"
fill="#000000" stroke="none">
<path d="M0 6340 l0 -6340 6155 0 6155 0 0 6340 0 6340 -1707 -2 c-940 -1
-1670 -4 -1623 -5 47 -2 89 -8 94 -13 6 -6 22 -10 36 -10 14 0 35 -7 46 -15
10 -8 27 -15 37 -15 9 0 17 -3 17 -7 0 -5 18 -17 40 -27 22 -11 40 -23 40 -28
0 -4 6 -8 14 -8 27 0 186 -178 186 -210 0 -5 5 -10 10 -10 6 0 10 -5 10 -10 0
-6 11 -27 23 -48 13 -20 27 -48 30 -62 3 -14 14 -50 23 -80 9 -30 21 -102 25
-160 11 -137 11 -11114 0 -11245 -9 -104 -25 -183 -42 -200 -5 -5 -9 -17 -9
-26 0 -17 -48 -119 -61 -129 -3 -3 -9 -15 -13 -27 -4 -13 -12 -23 -17 -23 -5
0 -9 -5 -9 -11 0 -6 -6 -17 -12 -24 -7 -8 -24 -30 -38 -49 -14 -20 -31 -36
-37 -36 -7 0 -13 -4 -13 -8 0 -21 -203 -142 -237 -142 -8 0 -35 -7 -61 -15
-42 -14 -386 -15 -3049 -13 -2385 2 -3005 6 -3015 16 -6 6 -27 12 -45 12 -18
0 -33 5 -33 10 0 6 -11 10 -24 10 -14 0 -28 5 -31 11 -4 6 -15 13 -25 17 -42
17 -230 189 -230 212 0 4 -4 10 -8 12 -12 5 -92 169 -92 189 0 10 -4 20 -9 23
-5 4 -12 24 -16 46 -4 22 -11 42 -16 46 -13 8 -12 11441 1 11449 6 3 10 19 10
34 0 15 7 36 15 47 8 10 15 25 15 33 0 21 33 91 42 91 4 0 8 6 8 14 0 18 32
76 43 76 4 0 7 4 7 10 0 22 108 134 175 181 58 41 158 89 183 89 10 0 22 4 28
10 5 5 43 11 84 13 41 1 -635 4 -1502 5 l-1578 2 0 -6340z"/>
<path d="M4598 12673 c789 -2 2076 -2 2860 0 785 1 140 2 -1433 2 -1573 0
-2215 -1 -1427 -2z"/>
<path d="M3060 12648 c-79 -16 -154 -41 -192 -65 -21 -13 -42 -23 -47 -23 -16
0 -159 -140 -182 -178 -13 -20 -25 -39 -28 -42 -21 -19 -69 -122 -96 -205 -41
-129 -40 79 -40 -5790 0 -4630 2 -5603 13 -5665 13 -72 33 -143 51 -185 5 -11
16 -37 26 -58 26 -59 103 -168 154 -216 83 -78 205 -146 296 -164 32 -7 1080
-12 2990 -14 2967 -4 3015 -4 3110 30 170 59 326 205 399 372 9 22 21 48 26
57 6 10 10 25 10 33 0 8 4 23 9 33 5 9 17 55 25 102 14 77 16 636 16 5680 0
5931 2 5630 -41 5785 -20 72 -74 188 -95 206 -8 6 -14 17 -14 23 0 18 -128
148 -180 183 -69 47 -147 79 -236 97 -74 15 -335 16 -3005 15 -1739 -1 -2942
-5 -2969 -11z m3478 -576 c9 -6 12 -36 10 -113 l-3 -104 -533 -5 c-293 -3
-542 -2 -553 2 -17 7 -19 18 -19 112 0 74 4 106 13 109 21 9 1071 7 1085 -1z
m2319 -754 c8 -14 14 -9389 6 -9446 l-5 -32 -2837 2 -2836 3 -3 4720 c-1 2596
0 4730 3 4743 l5 22 2830 0 c2252 0 2830 -3 2837 -12z m-2612 -9885 c47 -15
134 -59 145 -72 3 -4 19 -17 37 -29 89 -62 183 -258 183 -382 0 -90 -55 -238
-118 -320 -54 -69 -184 -159 -233 -160 -8 0 -20 -5 -27 -12 -19 -19 -237 -16
-292 4 -83 30 -134 62 -200 128 -65 63 -111 140 -139 231 -14 44 -15 236 -1
244 6 3 10 16 10 29 0 30 24 78 76 152 60 85 131 138 244 183 78 30 224 32
315 4z"/>
<path d="M5190 4819 c-223 -49 -409 -194 -505 -394 -57 -119 -75 -195 -82
-345 -21 -461 185 -895 628 -1325 187 -181 441 -373 656 -495 105 -59 99 -59
210 6 331 196 677 489 885 749 129 162 266 405 318 565 66 207 88 478 52 654
-21 101 -68 212 -120 288 -221 318 -700 415 -1023 207 -74 -49 -158 -132 -195
-194 l-26 -45 -28 42 c-70 109 -197 213 -316 258 -142 53 -302 63 -454 29z"/>
</g>
</svg>
