<?xml version="1.0" standalone="no"?>
<!DOCTYPE svg PUBLIC "-//W3C//DTD SVG 20010904//EN"
 "http://www.w3.org/TR/2001/REC-SVG-20010904/DTD/svg10.dtd">
<svg version="1.0" xmlns="http://www.w3.org/2000/svg"
 width="1249.000000pt" height="1250.000000pt" viewBox="0 0 1249.000000 1250.000000"
 preserveAspectRatio="xMidYMid meet">
<metadata>
Created by potrace 1.16, written by Peter Selinger 2001-2019
</metadata>
<g transform="translate(0.000000,1250.000000) scale(0.100000,-0.100000)"
fill="#000000" stroke="none">
<path d="M0 6250 l0 -6250 6245 0 6245 0 0 6250 0 6250 -6245 0 -6245 0 0
-6250z m9295 6220 c3 -5 17 -10 30 -10 22 0 92 -27 105 -40 3 -3 22 -14 43
-24 20 -11 37 -23 37 -28 0 -4 6 -8 13 -8 29 0 187 -177 187 -209 0 -5 3 -11
8 -13 11 -5 62 -111 62 -130 0 -9 5 -20 10 -23 6 -3 10 -16 10 -28 0 -12 8
-42 16 -67 14 -38 17 -110 20 -485 2 -370 3 -695 2 -880 -1 -22 0 -130 1 -240
1 -236 2 -6964 1 -7015 -1 -19 -2 -615 -3 -1325 -2 -1195 -3 -1293 -19 -1335
-10 -25 -18 -55 -18 -67 0 -12 -4 -25 -10 -28 -5 -3 -10 -13 -10 -20 0 -15
-49 -126 -60 -135 -3 -3 -21 -30 -40 -60 -32 -52 -136 -160 -153 -160 -4 0
-20 -11 -35 -25 -15 -14 -34 -25 -44 -25 -9 0 -18 -3 -20 -7 -5 -13 -77 -43
-101 -43 -13 0 -28 -5 -33 -10 -12 -12 -5963 -8 -6009 4 -41 11 -133 55 -175
85 -31 22 -166 154 -197 194 -7 9 -13 23 -13 32 0 8 -4 15 -10 15 -5 0 -10 8
-10 19 0 10 -7 24 -15 31 -8 7 -15 21 -15 31 0 11 -4 19 -10 19 -5 0 -10 11
-10 24 0 13 -7 37 -15 52 -8 16 -15 38 -15 50 0 11 -5 25 -10 30 -15 15 -8
11254 7 11312 6 24 16 49 22 55 6 6 11 21 11 34 0 13 5 23 10 23 6 0 10 8 10
19 0 10 7 24 15 31 8 7 15 21 15 31 0 11 5 19 10 19 6 0 10 5 10 11 0 34 171
211 236 244 21 11 41 22 44 25 5 6 66 31 115 48 41 14 5991 16 6000 2z"/>
<path d="M3353 12455 c-136 -27 -222 -73 -322 -173 -59 -58 -141 -167 -141
-187 0 -3 -10 -30 -23 -58 -36 -79 -45 -113 -62 -224 -13 -91 -15 -709 -15
-5563 0 -4854 2 -5472 15 -5563 18 -120 28 -153 71 -252 45 -102 136 -213 232
-283 94 -68 129 -83 270 -111 77 -16 5782 -15 5866 0 100 19 164 46 253 107
157 109 263 285 303 506 19 102 19 11115 1 11196 -29 127 -43 167 -80 235 -12
22 -25 48 -28 58 -3 9 -9 17 -14 17 -5 0 -9 6 -9 14 0 13 -111 132 -161 172
-62 50 -167 93 -275 113 -91 17 -5796 13 -5881 -4z m3445 -563 c9 -6 12 -36
10 -113 l-3 -104 -537 -3 c-624 -3 -561 -17 -557 125 3 75 5 86 24 93 26 11
1046 12 1063 2z m2287 -5412 l0 -4675 -2775 -3 c-1526 -1 -2785 0 -2797 3
l-23 5 0 4669 c0 2567 3 4671 7 4674 3 4 1262 6 2797 5 l2791 -3 0 -4675z
m-2590 -5071 c5 -5 17 -9 28 -9 34 0 172 -88 203 -130 7 -8 23 -27 36 -42 52
-60 108 -212 108 -293 0 -38 -22 -136 -42 -190 -24 -62 -98 -165 -149 -205
-58 -45 -105 -70 -186 -96 -63 -19 -254 -17 -275 4 -6 6 -20 12 -29 12 -55 0
-221 132 -251 200 -7 17 -16 30 -19 30 -4 0 -19 38 -34 85 -22 71 -26 97 -22
167 7 147 46 237 147 338 60 60 155 120 191 120 8 0 19 4 25 9 20 21 247 20
269 0z"/>
<path d="M4418 9083 c-8 -10 -38 -79 -66 -153 -28 -74 -65 -172 -82 -216 l-31
-81 -247 -5 c-136 -3 -254 -9 -264 -13 -24 -10 -42 -59 -30 -82 6 -10 99 -81
207 -157 119 -85 194 -144 191 -151 -24 -64 -136 -426 -136 -442 0 -28 31 -53
65 -53 19 0 94 42 232 130 112 72 206 130 208 130 3 0 97 -58 209 -130 141
-90 214 -130 234 -130 33 0 62 27 62 58 0 12 -25 99 -56 194 -31 95 -61 192
-69 215 l-13 42 195 137 c113 79 199 147 206 161 9 20 8 31 -4 51 -13 24 -22
28 -84 33 -39 4 -154 7 -256 8 -136 1 -189 4 -196 14 -6 6 -45 104 -88 217
-42 113 -84 213 -93 223 -8 9 -29 17 -47 17 -18 0 -38 -8 -47 -17z"/>
<path d="M8430 8375 l0 -85 -1335 0 -1335 0 0 -115 0 -115 1335 0 1335 0 0
-85 c0 -47 2 -85 4 -85 10 0 612 272 620 280 6 6 -1 13 -15 19 -13 5 -136 59
-274 121 -137 62 -269 121 -292 131 l-43 18 0 -84z"/>
<path d="M4418 7503 c-8 -10 -38 -79 -66 -153 -28 -74 -65 -172 -82 -216 l-31
-81 -247 -5 c-136 -3 -254 -9 -264 -13 -24 -10 -42 -59 -30 -82 6 -10 99 -81
207 -157 119 -85 194 -144 191 -151 -24 -64 -136 -426 -136 -442 0 -28 31 -53
65 -53 19 0 93 41 224 124 108 68 201 126 208 130 6 4 104 -52 217 -124 141
-90 214 -130 234 -130 33 0 62 27 62 58 0 19 -49 179 -124 409 l-14 41 195
137 c113 80 199 148 206 162 9 20 8 31 -4 51 -13 24 -22 28 -84 33 -39 4 -154
7 -256 8 -136 1 -189 4 -196 14 -5 6 -45 104 -88 217 -42 113 -84 213 -93 223
-8 9 -29 17 -47 17 -18 0 -38 -8 -47 -17z"/>
<path d="M8430 6795 l0 -85 -1335 0 -1335 0 0 -115 0 -115 1335 0 1335 0 0
-85 c0 -47 2 -85 4 -85 3 0 385 170 560 249 38 17 66 34 63 37 -5 5 -403 185
-584 265 l-43 18 0 -84z"/>
<path d="M4418 5643 c-8 -10 -38 -79 -66 -153 -28 -74 -65 -172 -82 -216 l-31
-81 -247 -5 c-136 -3 -254 -9 -264 -13 -24 -10 -42 -59 -30 -82 6 -10 99 -81
207 -157 119 -85 194 -144 191 -151 -24 -64 -136 -426 -136 -442 0 -28 31 -53
65 -53 19 0 94 42 232 130 112 71 206 130 208 130 3 0 97 -58 209 -130 141
-90 214 -130 234 -130 33 0 62 27 62 58 0 19 -49 179 -119 394 l-19 56 195
137 c113 80 199 148 206 162 9 20 8 31 -4 51 -13 24 -22 28 -84 33 -39 4 -154
7 -256 8 -136 1 -189 4 -196 14 -6 6 -45 104 -88 217 -42 113 -84 213 -93 223
-8 9 -29 17 -47 17 -18 0 -38 -8 -47 -17z"/>
<path d="M8430 4935 l0 -85 -1335 0 -1335 0 0 -115 0 -115 1335 0 1335 0 0
-85 c0 -47 2 -85 4 -85 2 0 120 52 262 116 143 64 283 127 312 140 30 13 51
28 47 34 -3 5 -10 10 -14 10 -5 0 -125 52 -267 116 -143 64 -278 125 -301 135
l-43 18 0 -84z"/>
</g>
</svg>
