<svg width="899" height="2060" viewBox="0 0 899 2060" fill="none" xmlns="http://www.w3.org/2000/svg">
<path d="M200.278 5.97301C190.364 12.3835 171.636 33.4464 166.128 44.8021C163.925 49.1978 160.988 59.2714 159.519 66.964C156.398 83.448 153.093 89.1258 143.362 95.17C139.323 97.7342 135.651 101.214 135.1 102.863C128.858 121.911 115.088 143.523 105.724 149.201C102.236 151.399 98.3801 155.245 96.9113 158.176C95.4425 160.923 87.9149 170.63 80.2037 179.422C65.1485 197.005 59.4569 207.078 59.2733 216.236V221.914L66.6173 219.167C70.6565 217.518 74.5121 216.786 75.2465 217.518C76.7153 218.983 66.8009 238.215 54.6833 257.08C50.4605 263.674 45.6869 274.297 44.0345 280.89L40.9133 292.795L49.7261 305.616C55.9685 314.957 60.0077 318.987 64.2305 320.269C72.4925 323.016 77.4497 327.961 79.4693 336.02C80.9381 341.332 82.5905 343.346 85.8953 344.262C88.4657 344.812 92.6885 347.925 95.2589 351.222L100.216 356.9L98.9309 380.527C98.1965 396.095 98.3801 404.887 99.6653 406.352C100.767 407.634 100.951 409.099 100.216 409.649C97.0949 411.48 68.6369 405.803 55.9685 400.857C48.8081 398.11 42.3821 396.095 41.8313 396.645C41.2805 397.194 39.2609 402.139 37.2413 407.817C31.7333 423.202 32.2841 442.434 38.1593 454.156C43.8509 465.145 43.1165 476.135 36.6905 478.516C33.2021 479.798 32.6513 481.629 32.4677 491.703C32.2841 498.113 31.5497 506.172 30.8153 509.469C29.7137 514.231 30.2645 516.429 33.2021 519.542C39.6281 526.686 41.0969 531.448 39.8117 540.056C37.7921 553.976 38.5265 554.342 57.2537 548.115L73.9613 542.437L85.3445 548.847C99.1145 556.174 117.842 563.866 119.127 562.401C119.678 561.852 113.252 555.991 104.806 549.214C87.3641 535.111 84.6101 529.616 89.3837 518.26C93.0557 509.286 98.7473 509.469 115.088 518.993C131.612 528.7 135.1 529.433 139.874 524.671C144.464 520.092 144.647 516.429 140.792 504.89C138.038 496.831 138.038 496.099 141.159 493.901C145.565 490.787 154.929 490.787 161.355 494.267C164.292 495.732 168.148 497.014 169.8 497.014C174.39 497.014 175.492 500.128 172.187 504.89C169.984 508.37 169.8 509.652 171.636 511.3C175.125 514.048 178.246 514.231 191.098 512.766C202.481 511.3 203.032 511.484 212.579 518.077C223.228 525.22 225.431 525.22 232.775 517.161C235.896 513.681 236.08 512.583 233.877 507.454C228.92 495 228.92 495.183 237.549 495.183C241.955 495 247.647 493.901 250.217 492.435C256.643 488.772 261.968 489.139 268.944 493.351C278.308 499.029 281.613 497.93 293.18 486.208C304.012 474.852 312.458 471.006 317.231 475.036C318.7 476.135 321.087 481.812 322.739 487.49C324.392 493.351 328.982 502.143 333.021 507.271C340.732 517.345 341.65 521.008 337.427 524.488C334.122 527.235 333.939 532.547 337.06 535.111C340.732 538.041 359.643 539.69 363.866 537.309C366.069 536.21 369.374 532.18 371.21 528.517C373.229 524.671 379.104 517.711 384.612 512.949C404.992 494.816 405.726 493.901 407.93 485.475C410.316 475.402 414.906 471.739 438.407 459.65C447.587 455.072 458.97 447.562 463.928 442.983L472.74 434.741L464.846 425.95C460.439 421.188 455.482 417.525 454.013 417.708C452.544 418.074 448.138 418.807 444.466 419.356C436.02 420.821 435.653 418.624 442.263 409.832C447.404 403.238 448.322 397.194 445.935 388.769C443.915 381.809 459.705 359.098 473.291 349.94C484.858 341.881 489.264 334.921 487.796 327.229C486.878 322.833 484.858 321.185 475.678 317.521C469.803 315.14 463.56 311.477 462.092 309.463C460.072 306.532 457.685 305.799 451.259 306.166C444.099 306.349 438.591 304.334 413.621 291.88C397.464 283.821 380.573 276.494 375.8 275.396C367.721 273.564 366.803 273.747 362.213 278.143C357.44 282.539 356.705 282.722 341.65 281.623L326.044 280.341L317.966 287.667C313.559 291.696 308.051 295.726 305.848 296.275C303.461 297.008 301.625 298.473 301.625 299.389C301.625 303.418 282.531 299.572 276.105 294.077C272.249 290.964 272.249 290.597 275.003 277.777C277.757 264.956 277.757 264.406 272.249 243.526C268.026 227.592 266.741 218.434 266.741 205.43C266.741 186.015 264.722 176.674 259.397 171.912C254.807 167.7 254.807 162.755 259.397 156.894C261.417 154.329 263.069 151.216 263.069 149.934C263.069 148.652 265.64 144.256 268.577 140.226C271.698 136.014 274.085 132.168 274.085 131.618C274.085 131.069 272.066 130.702 269.495 130.702C263.62 130.702 255.725 126.673 244.709 118.431C228.002 105.793 220.474 74.107 229.838 55.7914C234.244 47.1831 234.611 41.6884 231.123 29.0507C227.634 15.4971 221.759 5.42354 216.251 2.85936C209.825 -0.0711405 209.825 -0.0711405 200.278 5.97301Z" fill="#A4B5C8"/>
<path d="M380.207 72.6412C377.453 74.8391 371.394 81.799 366.804 88.2095C362.214 94.4368 356.155 100.664 353.401 101.763C350.647 102.862 341.834 103.595 333.756 103.411C319.251 103.228 319.068 103.228 308.97 110.921C303.462 115.133 294.465 121.178 289.141 124.291C279.777 129.969 272.25 139.31 265.824 153.23C264.355 156.527 262.152 160.373 261.05 162.021C259.214 164.402 259.765 166.234 263.988 171.912C269.129 178.505 269.312 179.788 270.597 204.697C271.148 218.8 272.617 232.72 273.719 235.467C274.82 238.031 276.84 246.09 278.309 253.233C280.695 264.222 280.695 268.069 278.676 277.593C277.391 284.003 276.656 289.681 277.023 290.414C277.391 290.963 281.613 292.978 286.02 294.809C294.098 297.74 294.649 297.74 301.259 294.443C304.931 292.612 311.724 287.85 316.314 283.82L324.576 276.86L339.998 278.142C354.87 279.241 355.421 279.058 360.378 274.479C365.335 269.717 365.886 269.534 375.249 271.549C380.39 272.648 398.567 280.34 415.274 288.399C438.408 299.572 447.037 302.868 451.26 302.319C457.135 301.403 462.276 303.418 466.866 308.363C468.335 310.011 473.475 312.942 478.249 314.59C488.347 318.253 490.55 320.634 491.835 328.877C493.121 337.302 487.796 345.177 475.128 353.419C463.928 360.929 447.404 383.823 449.607 388.952C452.545 395.545 452.178 399.575 447.955 407.817C444.283 414.96 443.916 416.425 446.486 415.326C455.85 411.48 457.686 412.029 467.049 422.469C474.393 430.711 477.515 432.909 483.757 433.825C501.015 436.755 505.973 446.829 504.32 473.936L503.219 490.603L491.652 502.508C485.226 509.102 479.167 516.245 478.065 518.443C475.679 523.205 478.065 538.407 482.105 542.253C486.327 546.466 496.793 543.902 503.035 536.942C513.5 525.586 514.602 524.487 519.192 523.388C528.005 521.19 532.411 523.755 533.696 531.813C534.431 536.026 538.47 544.634 543.06 551.594C547.466 558.371 551.873 566.613 552.423 569.91C553.525 575.588 554.076 575.954 559.217 575.038C569.865 572.84 574.272 569.544 573.721 564.415C573.354 560.019 574.088 559.287 579.963 558.188C583.819 557.455 594.101 558.371 604.933 560.203C620.906 562.95 624.762 563.133 633.208 561.118C642.02 558.92 643.122 558.188 643.122 553.975C643.122 550.312 644.958 548.114 650.466 544.634C658.544 539.689 658.544 539.689 655.79 532.363C653.036 524.853 655.423 516.062 662.4 508.369C665.705 504.523 669.927 498.113 671.58 493.9C674.517 486.757 674.517 485.292 671.58 472.837C669.744 465.511 664.236 448.294 659.095 434.741C650.466 411.48 649.915 408.549 648.63 387.12C647.345 362.394 645.509 356.533 628.801 321.184C617.234 296.824 608.422 287.3 572.069 260.376C554.259 247.372 537.368 235.65 534.247 234.734C530.942 233.452 521.946 233.269 511.664 233.819C501.933 234.551 492.386 234.185 489.632 233.269C483.39 230.888 477.882 218.433 477.882 206.162C477.882 197.37 477.331 195.905 470.538 189.312C466.499 185.282 463.194 181.619 463.194 180.886C463.194 180.154 464.846 175.941 467.049 171.545C470.721 164.036 470.721 163.303 467.967 159.457C466.315 157.259 463.01 152.864 460.623 149.567C458.237 146.27 453.647 136.929 450.342 128.504C442.263 108.357 436.755 101.763 420.966 93.1547C413.622 89.1253 405.543 83.2643 402.789 80.1506C398.934 75.5717 388.469 68.4286 385.715 68.4286C385.347 68.4286 382.961 70.2602 380.207 72.6412Z" fill="#7D7CB9"/>
<path d="M465.949 446.28C459.89 451.775 447.956 459.834 439.327 464.047C417.111 475.036 414.357 477.417 410.869 487.857C407.931 496.831 405.545 499.579 388.47 514.598C383.145 519.36 376.719 526.686 374.149 531.082C371.579 535.477 368.09 539.873 366.254 540.789C361.664 543.353 337.98 540.972 334.308 537.675C330.269 534.195 330.085 525.77 333.757 522.656C337.613 519.543 337.429 519.177 329.534 508.737C325.862 503.791 321.639 495.916 320.171 491.52C318.885 486.941 317.049 481.996 316.315 480.531C313.745 475.585 306.584 478.699 295.017 489.688C282.349 501.96 279.411 502.692 267.11 496.831C259.399 492.985 258.665 492.985 252.789 495.916C249.301 497.564 243.793 498.846 240.855 498.846C236.082 498.846 235.347 499.396 236.449 501.96C240.488 512.217 239.754 516.246 232.777 522.473C224.699 529.433 220.292 529.067 209.643 520.642C202.85 515.33 202.299 515.33 188.346 516.429C175.861 517.528 173.474 517.162 169.619 514.048C165.947 511.118 165.579 509.836 167.415 506.539C170.537 500.495 169.802 498.846 164.111 498.846C160.989 498.846 158.052 497.93 157.501 497.015C156.216 495 149.239 494.634 144.833 496.282C142.813 497.015 142.446 498.297 143.547 500.311C147.219 507.088 147.954 520.642 144.833 525.221C139.508 533.463 132.348 533.096 116.191 523.755C99.1162 513.865 95.4442 513.316 92.5066 520.459C88.8346 529.067 91.5886 533.829 107.745 546.467C116.191 553.06 123.902 560.387 124.82 562.951C126.473 567.347 129.043 568.629 150.891 576.688C161.357 580.534 164.294 596.285 158.052 612.952C156.399 617.165 155.298 617.898 151.626 616.982L147.036 615.883L148.505 643.539C149.79 670.83 149.79 671.196 145.016 679.804L140.426 688.413L148.321 695.739C152.727 699.768 157.501 702.882 159.153 702.516C160.989 702.149 162.825 704.897 164.661 711.49C168.517 724.128 168.333 727.242 163.743 729.623C159.337 732.187 155.298 729.623 154.196 723.579C153.645 720.465 152.544 721.93 148.688 730.172C145.934 736.033 143.731 741.528 143.731 742.444C143.731 743.36 145.934 745.374 148.688 746.839C153.095 749.037 154.196 749.037 156.216 746.839C157.501 745.374 160.071 744.275 161.907 744.275C163.743 744.275 168.333 742.993 172.189 741.345C181.553 737.499 186.143 739.147 195.873 749.037C205.053 758.745 210.378 759.66 225.984 754.532C235.715 751.235 241.957 746.473 243.793 740.795C245.996 733.469 251.688 734.202 261.235 743.176C267.11 748.671 271.884 751.602 275.005 751.602C279.044 751.602 279.595 750.869 278.677 747.938C278.126 746.107 276.841 740.429 276.107 735.484C275.189 729.623 272.618 723.945 268.579 719C263.071 712.223 262.704 710.758 264.54 706.728C265.825 703.981 266.743 692.808 266.743 680.537C266.743 668.815 267.477 658.009 268.395 656.727C269.681 654.712 271.7 655.078 278.861 658.925C289.509 664.602 297.955 664.969 308.787 660.024C318.885 655.445 319.62 655.445 322.19 660.939C325.862 669.181 342.019 673.76 342.019 666.617C342.019 665.152 344.222 662.221 346.976 660.024C351.75 656.36 353.402 656.177 368.09 657.276L384.063 658.558L386.267 653.43C391.591 639.51 391.775 639.327 418.213 628.338C432.167 622.477 444.835 616.799 446.12 615.7C447.405 614.601 448.507 610.205 448.507 605.626C448.507 597.018 448.507 596.835 431.432 581.816C426.475 577.42 423.17 573.208 423.721 571.742C424.272 570.277 429.229 568.262 434.737 567.163C442.999 565.332 446.12 563.5 454.199 555.258C465.949 543.17 470.539 536.027 470.539 529.433C470.539 521.558 475.313 513.682 487.981 500.678L499.548 488.773L500.649 472.838C502.302 449.028 498.079 440.236 483.207 437.489C477.516 436.39 475.863 437.306 465.949 446.28Z" fill="#7241FD"/>
<path d="M517.907 527.603C516.254 527.969 513.133 531.083 510.93 534.563C506.156 542.255 500.281 546.101 490.734 547.567C485.042 548.482 482.472 548.116 479.718 545.552C477.698 543.72 476.046 541.156 476.046 539.691C476.046 535.845 473.476 536.944 470.171 542.255C466.315 548.666 449.975 565.699 445.018 568.263C442.998 569.362 439.51 570.278 437.123 570.278C427.943 570.278 427.392 573.208 434.92 579.802C451.627 593.905 452.178 594.821 452.178 605.627C452.178 612.77 451.26 616.25 449.057 618.448C447.221 619.913 435.47 625.408 422.802 630.719C394.344 642.258 392.324 643.54 390.856 651.599C389.203 660.757 384.797 662.589 368.456 660.94C353.585 659.658 348.444 661.307 345.69 668.45C344.772 670.831 342.569 673.395 341.1 673.944C336.51 675.776 321.822 669.182 319.619 664.603L317.783 660.391L309.337 664.054C299.79 668.45 284.368 667.717 277.391 662.955C275.188 661.307 272.617 660.024 271.883 660.024C270.965 660.024 270.414 669.365 270.414 680.904C270.414 692.443 269.68 703.982 268.762 706.363C267.293 710.026 268.027 712.041 272.434 717.352C276.473 722.114 278.492 727.243 279.778 735.485C282.348 751.786 286.02 758.013 301.993 773.948C312.091 784.021 318.15 788.6 323.291 790.065C336.694 793.545 355.788 817.722 365.702 843.547C366.804 846.294 371.761 851.606 376.718 855.086C381.859 858.749 388.469 864.793 391.59 868.456L397.098 875.233L402.239 869.189C406.462 864.427 408.848 863.328 414.724 863.328C421.15 863.328 423.169 864.61 435.654 876.881C448.506 889.702 450.526 890.801 468.518 897.212C478.984 900.875 487.98 903.256 488.714 902.34C489.265 901.424 491.836 899.776 494.406 898.494C496.976 897.395 503.219 893.365 508.176 889.702C516.622 883.658 518.09 883.292 525.618 884.391C541.591 886.955 545.447 886.222 551.873 880.178C557.565 874.683 558.299 874.5 570.6 875.233C577.761 875.782 584.37 876.149 585.288 876.332C586.39 876.332 589.695 875.965 592.816 875.233L598.691 873.951L599.425 886.588C599.976 896.662 601.078 900.875 605.484 907.835C610.441 915.71 611.176 916.077 611.91 912.413C612.828 909.3 614.297 908.201 618.336 908.201C625.68 908.018 634.677 898.494 639.45 885.856C644.224 873.218 644.04 867.723 638.899 858.932C634.677 851.423 633.024 850.14 623.844 847.393C618.887 845.928 618.153 844.829 615.949 834.206C613.379 820.835 607.32 808.93 602.363 807.282C596.671 805.634 594.835 799.04 594.468 780.541L594.285 762.958L605.484 760.76C619.805 758.013 633.391 752.152 636.696 747.207C640.735 741.529 640.001 734.019 633.942 715.887C628.251 699.037 625.68 683.102 623.661 651.782C622.375 629.437 624.028 624.309 638.532 608.741C644.591 602.147 648.63 596.103 648.63 593.722C648.63 588.96 643.673 564.6 642.388 563.501C642.021 563.135 638.165 563.684 633.942 564.966C627.516 566.981 623.11 566.798 605.851 564.051C581.616 560.021 577.944 560.388 577.944 566.432C577.944 572.11 569.866 577.238 558.299 578.703L550.037 579.802L548.935 572.842C548.201 568.813 544.162 560.388 539.572 553.794C534.982 546.834 530.942 538.409 530.208 534.013C528.923 526.137 527.087 525.222 517.907 527.603Z" fill="#AE8BF8"/>
<path d="M246.18 745.009C240.488 753.984 228.554 759.479 213.315 760.394C201.565 761.127 201.198 760.944 195.69 754.717C192.569 751.237 187.979 747.024 185.408 745.376C181.185 742.445 180.084 742.445 170.72 745.742C165.029 747.574 159.153 750.321 157.501 751.603C154.747 753.801 153.278 753.435 145.383 749.222C137.305 744.643 135.836 744.277 129.594 746.108C124.269 747.757 118.211 747.574 103.339 745.559C92.6902 744.094 83.6938 743.178 83.3266 743.544C82.9594 743.727 85.897 748.856 89.7526 754.717C94.7098 762.043 99.4834 766.622 104.808 769.369C118.394 776.146 118.578 776.512 117.476 790.432C116.925 797.209 114.906 805.817 113.253 809.663C109.214 818.272 93.0574 834.389 85.1626 837.503C79.471 839.884 79.471 840.25 80.5726 849.042C81.6742 857.284 81.307 858.566 76.5334 863.511C73.2286 866.991 69.5566 868.823 66.0682 868.823C62.029 868.823 61.111 869.372 62.5798 871.021C63.4978 872.303 64.783 882.926 65.1502 894.648C65.701 906.187 66.9862 917.359 68.0878 919.557C70.6582 924.136 79.2874 927.433 88.8346 927.433C92.6902 927.433 97.831 928.165 100.218 929.081C105.909 931.279 115.64 945.931 117.109 954.54C118.211 961.133 118.394 961.317 125.004 960.767C129.961 960.218 134.735 961.683 142.446 965.712L152.911 971.207L157.317 962.599C159.704 957.837 165.029 951.243 169.068 947.946C178.248 940.803 180.451 933.843 180.451 912.963C180.451 898.86 180.084 897.395 175.861 894.098C169.251 888.97 167.783 880.728 168.884 856.185L169.986 834.023L176.228 832.924C179.717 832.192 185.775 832.192 189.631 832.924C196.424 834.023 197.159 833.657 199.729 828.345C204.135 819.92 208.358 821.935 210.745 834.023C213.132 845.013 223.046 861.497 227.453 861.497C230.941 861.497 239.754 856.918 248.567 850.507C252.422 847.76 260.501 843.73 266.743 841.349C275.005 838.236 278.126 836.221 278.861 832.924C280.146 827.979 283.634 827.246 286.939 831.276C288.224 832.741 290.611 834.023 292.263 834.023C299.607 834.023 318.335 807.099 317.967 797.026C317.967 794.095 314.663 790.249 307.686 784.754C302.178 780.358 293.916 772.116 289.326 766.255C282.349 757.281 280.146 755.449 273.536 754.533C268.028 753.618 263.622 751.237 258.114 745.742L250.586 738.416L246.18 745.009Z" fill="#6D72F4"/>
<path d="M321.825 797.758C321.825 805.084 311.544 823.766 303.833 830.726C296.305 837.503 288.41 839.701 286.023 835.854C284.371 833.107 281.433 833.657 281.433 836.587C281.433 837.869 276.293 841.349 270.05 843.913C263.624 846.661 253.343 852.155 247.284 856.185C241.041 860.214 232.963 863.877 229.475 864.61C223.232 865.526 222.865 865.159 215.705 854.353C211.298 847.393 207.81 839.701 207.075 834.572C205.974 827.246 205.607 826.513 203.954 829.444C200.466 836.038 196.977 837.503 187.247 836.587C181.922 836.038 176.598 836.404 175.313 837.32C173.844 838.419 172.926 845.928 172.559 862.229L172.191 885.673L178.25 890.618C184.125 895.563 184.125 895.746 184.125 912.047C183.942 935.674 182.289 941.719 172.559 950.327C167.969 954.356 162.093 962.049 159.523 967.177C156.953 972.489 154.382 976.885 154.015 976.885C153.648 976.885 148.507 973.954 142.632 970.474C134.737 965.712 130.147 964.064 125.373 964.43C119.682 964.979 118.947 965.712 116.928 972.672C115.643 977.068 109.951 988.057 104.259 997.215C96.1811 1010.04 93.7943 1015.9 93.0599 1023.22C91.5911 1037.51 90.6731 1040.99 88.1027 1040.99C86.8175 1040.99 84.2471 1042.09 82.2275 1043.37C79.1063 1045.75 79.1063 1046.12 82.0439 1052.16C83.8799 1055.64 85.7159 1062.05 86.0831 1066.63C87.0011 1073.96 83.1455 1113.15 80.3915 1125.24C79.4735 1129.45 79.4735 1129.64 81.6767 1126.34C82.9619 1124.33 85.8995 1120.85 88.1027 1118.46C90.4895 1115.9 91.5911 1112.97 91.0403 1110.59C89.5715 1104.73 98.3843 1105.64 102.423 1111.87L105.728 1116.82L109.584 1111.87C113.256 1107.29 114.725 1106.93 124.639 1107.11C134.737 1107.29 136.573 1106.74 144.284 1100.88C155.117 1092.64 158.789 1091.54 165.215 1094.65C174.578 1099.42 179.352 1099.6 185.594 1095.94C193.856 1090.81 198.813 1091.17 198.813 1096.67C198.813 1102.35 204.321 1104.54 207.443 1100.33C208.728 1098.5 209.829 1093.92 209.829 1090.07C209.829 1082.2 213.685 1077.25 224.334 1071.76C227.639 1069.93 231.311 1065.9 232.963 1062.05L235.717 1055.46L255.362 1055.82C267.663 1056.01 276.843 1055.28 279.23 1053.99C283.086 1051.98 283.086 1051.61 280.515 1047.58C277.761 1043.37 277.945 1043 285.473 1036.96C293.735 1030.37 310.993 1022.31 321.825 1019.93C337.615 1016.63 360.565 999.046 371.214 982.379C376.722 973.588 384.617 964.247 387.554 963.148C389.207 962.598 393.246 963.514 396.367 965.163L402.426 968.459L410.688 960.767C415.278 956.554 420.602 953.074 422.622 953.074C425.009 953.074 427.946 950.144 431.067 944.832C439.88 929.997 448.142 924.868 473.846 918.275C479.171 916.993 482.292 914.978 483.21 912.23C484.128 910.033 484.495 907.835 484.311 907.285C483.944 906.736 475.315 903.439 465.033 899.959C447.224 893.915 445.755 892.816 433.271 880.178C418.032 864.793 412.891 863.328 404.445 872.486C397.652 879.629 394.347 879.446 388.472 871.02C385.718 867.357 379.843 861.679 375.253 858.749C367.358 853.621 357.077 838.968 356.893 832.558C356.526 825.598 329.353 793.729 323.661 793.729C322.743 793.729 321.825 795.56 321.825 797.758Z" fill="#9BA1D7"/>
<path d="M554.261 883.292C548.018 889.703 542.143 891.168 530.943 888.604C520.295 886.223 515.337 887.322 507.626 894.282C504.505 897.395 499.548 900.875 496.794 902.157C494.04 903.439 489.817 908.018 487.614 912.048C483.575 919.191 482.657 919.74 467.418 923.953C449.058 928.715 438.776 936.407 432.901 949.412C430.514 954.906 428.495 956.738 425.373 956.738C423.17 956.738 417.295 960.035 412.705 964.064C403.341 972.306 402.056 972.489 394.712 968.643C389.755 966.079 389.204 966.262 384.798 971.024C382.227 973.771 378.739 978.167 377.087 980.914C375.251 983.662 369.926 990.805 364.785 996.849C355.238 1008.57 339.081 1018.64 322.007 1023.77C309.155 1027.62 294.283 1034.58 287.857 1039.89C282.716 1044.1 282.533 1044.47 285.654 1046.85C290.06 1050.15 288.041 1054.91 281.064 1057.29C277.943 1058.39 266.927 1059.31 256.461 1059.31C238.469 1059.31 237.551 1059.49 236.449 1063.33C234.797 1068.46 228.371 1075.79 225.433 1075.79C224.148 1075.79 221.027 1077.44 218.64 1079.45C214.968 1082.2 213.683 1085.5 212.765 1093.01C211.296 1104.36 208.542 1107.66 201.749 1105.83C195.873 1104.36 195.69 1106.74 200.463 1117.18C205.237 1127.62 214.05 1131.65 231.675 1131.1C242.508 1130.92 246.547 1131.47 251.137 1134.4C254.442 1136.41 259.032 1138.06 261.419 1138.06C269.313 1138.06 270.966 1140.44 269.681 1150.15C269.13 1155.1 267.661 1169.38 266.743 1182.02C264.907 1203.82 265.091 1205.1 268.946 1213.16C272.802 1220.67 274.087 1221.76 285.47 1225.43C295.568 1228.91 298.689 1229.27 302.545 1227.44C306.033 1225.98 312.092 1225.98 328.065 1227.63L348.996 1230.01L357.441 1225.06C365.336 1220.48 372.313 1220.12 375.067 1224.33C375.618 1225.06 375.985 1233.12 375.801 1242.28C375.618 1258.95 375.618 1258.95 380.391 1260.04C397.466 1263.71 399.669 1265.17 407.564 1277.08C418.029 1293.01 421.701 1296.49 430.698 1299.06C442.815 1302.72 447.222 1306.2 445.937 1311.14C445.019 1314.81 445.753 1316.09 450.159 1318.47C453.281 1319.94 458.789 1321.22 462.828 1321.22C468.519 1321.22 470.906 1322.32 475.496 1327.63C482.289 1335.32 486.879 1335.69 504.138 1330.38C511.849 1328 516.99 1325.25 518.826 1322.5C521.947 1317.56 537.186 1313.53 564.909 1310.23C588.227 1307.3 592.817 1304.37 602.364 1285.5L606.036 1278.18L598.875 1262.79C594.836 1254.18 586.574 1240.26 580.332 1231.66C571.152 1219.02 558.851 1193.92 560.87 1192.09C561.238 1191.91 564.175 1190.26 567.48 1188.61C574.273 1185.13 575.925 1181.65 577.945 1167.55C579.414 1156.56 582.902 1147.04 586.574 1144.11C587.859 1143.01 594.836 1140.26 601.813 1138.06C608.973 1135.68 620.173 1130.74 626.783 1126.89C640.736 1118.65 643.49 1118.28 658.362 1123.78C669.011 1127.62 669.378 1127.62 671.765 1124.33C674.519 1120.48 674.886 1111.69 673.233 1094.47C672.132 1084.58 671.397 1083.12 666.991 1081.28C660.932 1078.72 658.178 1071.03 658.178 1057.11C658.178 1044.29 653.221 1032.56 639.451 1013.52C633.943 1006.01 627.701 994.834 625.497 988.79C620.724 975.603 611.911 937.506 611.911 929.631C611.911 926.334 609.341 920.29 605.669 914.978C597.957 903.439 595.387 896.113 595.387 885.856C595.387 878.347 595.02 877.798 591.348 878.897C585.473 880.728 586.023 880.728 578.496 879.263C574.457 878.347 570.05 878.53 568.031 879.812C565.644 881.094 563.991 881.094 563.257 879.812C561.421 876.882 559.769 877.614 554.261 883.292Z" fill="#695C9E"/>
<path d="M677.273 1102.71C678.375 1119.93 676.722 1128.17 671.214 1130.19C669.562 1130.92 663.136 1129.64 657.077 1127.44C642.573 1122.31 641.287 1122.31 629.904 1129.27C624.763 1132.38 613.38 1137.7 604.751 1140.63C586.391 1147.22 584.004 1150.33 580.699 1171.95C578.863 1184.4 574.824 1190.99 567.664 1193.37C563.257 1194.84 570.601 1211.87 582.535 1227.81C588.778 1236.42 597.591 1251.07 601.997 1260.41L609.892 1277.44L606.22 1286.05C601.446 1297.04 594.653 1305.83 588.411 1309.13C585.657 1310.59 575.191 1312.61 565.093 1313.89C543.061 1316.46 524.518 1320.85 521.58 1324.33C519.928 1326.35 520.479 1327.99 523.416 1332.21C525.619 1335.14 530.76 1345.94 534.799 1356.38C544.163 1379.83 560.503 1412.98 563.074 1413.71C564.175 1413.89 569.683 1415.18 575.191 1416.46C580.699 1417.74 586.391 1419.57 587.676 1420.67C590.981 1423.42 590.247 1435.87 586.207 1443.93C581.434 1453.09 581.617 1456.39 586.758 1461.88C590.43 1465.91 590.797 1467.74 590.247 1486.61C590.063 1502.54 590.614 1508.77 593.001 1513.9C594.653 1517.74 596.856 1520.86 597.958 1520.86C599.059 1520.86 601.079 1521.59 602.548 1522.51C604.567 1523.79 604.2 1525.07 601.079 1529.28C593.919 1538.99 594.286 1544.48 602.548 1555.47C609.341 1564.45 610.075 1566.65 610.075 1575.62C610.075 1581.3 609.157 1589.17 608.056 1593.02C606.403 1599.25 606.771 1602.55 611.177 1617.38C615.583 1631.67 617.052 1634.78 620.541 1635.33C622.927 1635.88 626.783 1636.61 629.353 1637.16C635.229 1638.44 635.229 1640.28 628.435 1647.78C625.314 1651.45 622.927 1656.21 622.927 1658.96C622.927 1661.52 626.049 1671.78 630.088 1681.49C633.943 1691.38 637.799 1702.18 638.533 1705.48C639.268 1709.51 645.51 1718.12 655.608 1729.66C664.421 1739.55 674.335 1751.08 677.64 1755.11L683.883 1762.81L691.41 1758.59C698.02 1754.93 699.672 1752.73 704.079 1740.64C708.669 1728.19 709.036 1725.81 707.383 1715.92C704.262 1697.24 704.813 1695.04 711.79 1692.11C720.603 1688.45 723.907 1677.64 723.724 1653.46C723.54 1631.85 725.56 1626.36 736.943 1618.48C742.818 1614.63 745.572 1610.79 748.877 1602.36C751.264 1596.32 754.936 1588.44 756.772 1584.96C762.647 1574.16 764.299 1565 762.463 1551.08C760.444 1534.59 762.28 1530.2 773.479 1526.35C780.64 1523.97 782.292 1522.32 786.515 1513.9C789.085 1508.77 792.757 1503.09 794.777 1501.63C799.918 1497.78 813.321 1498.33 824.52 1502.91C834.067 1506.94 834.251 1506.94 840.677 1503.46C849.49 1498.7 854.263 1491.55 855.916 1480.56C857.385 1471.22 860.689 1467.01 868.217 1464.81C870.42 1464.26 872.991 1461.7 874.276 1459.32C875.377 1456.94 878.315 1454.01 880.702 1452.72C886.21 1450.34 890.983 1441 890.983 1433.13C890.983 1430.01 892.636 1419.76 894.839 1410.41C899.245 1390.82 899.613 1373.42 895.573 1364.08C892.819 1357.3 891.167 1356.93 881.069 1360.78C878.866 1361.7 878.131 1360.78 878.131 1357.3C878.131 1354.19 879.417 1352.17 881.803 1351.44C883.823 1350.89 885.475 1349.42 885.475 1348.32C885.475 1347.41 880.151 1341 873.541 1334.22C866.197 1326.53 860.689 1318.84 858.853 1314.07C857.385 1309.68 854.814 1305.1 853.162 1304C850.775 1302.17 851.142 1301.07 855.916 1294.84C859.037 1291 861.607 1286.97 861.607 1286.23C861.607 1283.12 855.181 1288.43 848.939 1296.67C845.634 1301.07 842.146 1304.73 841.411 1304.73C840.493 1304.73 838.107 1302.35 836.087 1299.42C831.313 1292.83 832.782 1288.07 843.431 1274.33C849.673 1266.27 850.591 1263.71 850.591 1255.65C850.591 1248.14 851.326 1246.12 854.08 1245.21C856.099 1244.66 858.67 1242.83 859.955 1241.36C861.975 1238.98 861.057 1237.52 853.896 1231.29C844.165 1223.05 841.779 1216.64 846.001 1210.22C848.755 1206.01 848.755 1206.01 836.271 1202.35C820.297 1197.77 799.551 1194.66 793.675 1196.12C791.105 1196.67 784.679 1201.07 779.171 1205.65C769.807 1213.52 768.522 1214.07 758.608 1214.07C750.713 1213.89 747.041 1212.97 744.103 1210.41C740.799 1207.48 738.045 1206.93 729.599 1207.29C716.38 1208.03 705.364 1205.28 702.243 1200.33C700.957 1198.32 699.305 1187.7 698.387 1176.89C697.469 1166.08 695.266 1151.25 693.797 1143.74C690.492 1128.54 691.227 1121.58 697.469 1107.84C702.977 1096.3 702.977 1094.1 697.469 1094.1C694.715 1094.1 692.695 1092.82 692.145 1090.44C691.41 1087.51 689.574 1086.78 683.699 1086.78H676.171L677.273 1102.71Z" fill="#26559B"/>
<path d="M147.404 1103.26C138.591 1109.86 136.572 1110.59 126.657 1110.59C117.294 1110.59 115.274 1111.14 112.153 1115.17C110.133 1117.73 107.379 1119.75 106.094 1119.75C104.625 1119.75 102.055 1117.73 100.402 1115.17C97.0976 1110.04 93.6092 1108.94 95.4452 1113.52C96.1796 1115.35 94.7108 1117.91 91.5896 1120.3C89.0192 1122.49 86.4488 1126.71 85.898 1129.82C84.98 1134.58 85.7144 1135.86 90.8552 1138.98C96.3632 1142.27 96.914 1143.74 97.4648 1152.35C97.832 1158.94 96.914 1164.62 94.3436 1170.48C91.9568 1175.97 91.5896 1177.99 93.242 1175.79C97.832 1169.75 103.34 1153.08 103.34 1145.2C103.34 1136.96 107.379 1135.86 108.481 1143.74C108.848 1146.12 112.153 1154.36 115.825 1161.87C121.516 1173.41 122.434 1177.26 122.067 1186.41C121.516 1200.33 117.477 1205.28 99.1172 1214.25C91.406 1218.1 83.6948 1223.23 82.226 1225.43C80.2064 1228.17 77.636 1229.64 73.964 1229.64C68.6396 1229.64 68.456 1229.27 68.456 1221.58C68.456 1217 69.374 1211.14 70.4756 1208.21C72.4952 1203.08 71.21 1187.51 68.8232 1187.51C68.0888 1187.51 65.8856 1190.08 64.0496 1193.19C62.2136 1196.31 58.358 1199.6 55.4204 1200.7C52.4828 1201.62 50.096 1203.45 50.096 1204.55C50.096 1205.65 53.4008 1211.32 57.44 1217C61.4792 1222.86 64.784 1228.36 64.784 1229.46C64.784 1230.37 62.7644 1234.4 60.194 1238.06C54.8696 1245.76 54.686 1247.22 58.358 1253.45C63.1316 1261.87 61.8464 1265.9 53.5844 1268.29C42.752 1271.58 41.4668 1275.43 40.5488 1307.66C39.8144 1332.94 39.4472 1336.05 34.8572 1345.21C31.736 1351.8 27.146 1357.48 21.4544 1361.51C13.1924 1367.74 8.41877 1373.78 10.4384 1375.61C10.9892 1376.16 15.5792 1375.61 20.72 1374.33C32.8376 1371.4 41.0996 1372.68 54.5024 1378.91C64.784 1383.86 65.3348 1383.86 71.5772 1380.93C80.2064 1376.9 84.98 1377.08 84.98 1381.66C84.98 1383.86 87.5504 1386.97 91.406 1389.35C95.2616 1391.92 98.3828 1395.76 99.3008 1399.06C100.402 1403.09 102.238 1404.74 106.461 1405.65C109.399 1406.2 115.641 1408.77 120.048 1411.15C126.106 1414.44 128.31 1416.82 128.677 1420.67C129.228 1425.25 129.962 1425.62 137.306 1425.62C145.017 1425.62 145.384 1425.8 146.67 1432.03C147.588 1436.97 148.873 1438.62 152.728 1439.54C155.299 1440.09 159.889 1441.37 162.826 1442.28C165.764 1443.2 170.538 1443.93 173.475 1443.93C176.229 1443.93 182.104 1446.31 186.327 1449.43C190.366 1452.36 195.691 1454.92 197.894 1454.92C199.914 1454.92 203.402 1456.2 205.422 1457.67C207.258 1459.13 210.746 1460.42 212.949 1460.42C219.008 1460.42 224.516 1468.66 224.516 1478C224.516 1484.78 225.067 1485.87 228.739 1486.42C232.594 1486.97 232.778 1487.71 232.962 1506.94C233.145 1529.47 232.594 1528.55 248.017 1531.3L257.564 1533.13L266.744 1514.26C274.272 1499.25 277.576 1494.3 284.737 1488.99C289.51 1485.33 296.304 1478 299.792 1472.69C303.831 1466.83 307.87 1462.98 310.441 1462.61C314.847 1461.88 315.214 1460.78 312.828 1454.37C311.726 1451.81 308.238 1448.69 304.015 1447.05C290.796 1441.73 282.35 1432.58 276.658 1417.19C273.354 1407.85 270.416 1402.9 268.213 1402.17C263.439 1401.07 264.174 1399.24 271.334 1393.75C275.006 1390.82 277.76 1387.15 277.76 1384.96C277.76 1382.94 274.272 1377.08 270.049 1371.95C265.642 1367.01 261.236 1359.31 260.318 1355.28C258.666 1348.87 257.013 1347.04 249.486 1343.01C244.528 1340.27 239.755 1336.6 238.653 1334.95C237.001 1332.02 237.735 1322.5 240.122 1312.06C241.04 1308.58 239.755 1305.47 234.981 1299.24C227.454 1289.35 223.965 1279.46 225.618 1272.86C226.536 1268.65 227.637 1268.1 234.614 1268.1H242.509L243.794 1258.76C245.446 1247.59 249.853 1242.28 261.787 1237.88C270.049 1234.95 270.783 1234.95 274.088 1237.88C278.311 1241.73 296.12 1243.56 298.14 1240.45C300.71 1236.23 297.405 1233.3 287.124 1230.37C264.174 1223.6 260.318 1215.9 263.072 1181.1C266.56 1139.34 266.928 1142.82 259.033 1141.54C255.177 1140.99 250.587 1139.16 248.568 1137.33C245.997 1134.95 242.325 1134.4 231.676 1134.76C206.523 1135.68 194.406 1125.97 194.589 1105.46C194.589 1100.33 194.406 1095.94 194.038 1095.94C193.855 1095.94 190.734 1097.58 187.062 1099.78L180.819 1103.44L169.252 1099.78C163.01 1097.58 157.686 1095.94 157.502 1095.94C157.318 1095.94 152.728 1099.23 147.404 1103.26Z" fill="#009BDD"/>
<path d="M357.996 1229.09L351.019 1233.85L330.272 1231.65C307.139 1228.91 300.896 1229.82 302.549 1235.32C304.936 1242.64 300.896 1245.21 287.494 1245.21C277.579 1245.39 274.458 1244.66 272.255 1241.91C269.684 1238.8 269.134 1238.8 259.954 1242.64C250.957 1246.31 250.406 1247.04 248.57 1255.65C247.469 1260.59 246.551 1266.27 246.551 1268.1C246.551 1271.22 245.266 1271.77 238.472 1271.77C233.882 1271.77 229.66 1272.5 229.109 1273.6C227.089 1276.89 231.496 1288.07 237.738 1295.94C242.695 1302.17 243.797 1305.1 243.246 1311.14C241.594 1336.24 241.226 1334.22 249.488 1338.43C260.321 1343.93 262.524 1346.31 263.993 1353.45C264.544 1357.12 268.766 1364.44 273.356 1369.94C283.087 1382.03 283.822 1388.44 276.294 1394.85C271.52 1398.88 271.337 1399.43 274.091 1402.17C275.743 1404 278.497 1410.05 280.333 1415.54C284.372 1428.55 290.982 1435.87 304.568 1443.02C313.748 1447.6 315.584 1449.43 317.053 1455.1C319.44 1464.63 331.19 1471.59 347.347 1473.24C354.324 1473.79 362.77 1476.17 367.543 1478.55C372.317 1481.11 379.477 1482.94 384.985 1483.13C390.126 1483.31 395.818 1484.23 397.654 1484.96C400.04 1486.06 400.775 1485.69 400.775 1482.76C400.775 1480.56 401.509 1478.55 402.611 1477.82C405.732 1475.98 416.932 1481.85 420.236 1487.34C425.01 1494.85 428.315 1497.05 435.475 1497.05C443.003 1497.05 446.308 1500.34 471.644 1534.59C494.411 1565.18 502.122 1573.24 511.118 1575.44L518.279 1577.27L520.298 1570.13C522.869 1561.7 527.642 1558.22 540.494 1555.47C553.897 1552.54 557.018 1548.88 556.651 1536.24C556.284 1524.15 557.569 1522.69 570.788 1522.69C575.929 1522.69 582.722 1522.14 585.844 1521.59C591.535 1520.49 591.535 1520.49 588.781 1514.81C586.394 1510.42 586.027 1505.84 587.129 1489.72C588.414 1470.67 588.414 1470.12 583.64 1464.63C577.949 1457.85 577.765 1453.64 582.722 1442.83C584.742 1438.25 586.211 1431.84 585.844 1428.73C585.293 1423.24 584.742 1422.69 574.277 1420.3C568.218 1419.02 561.976 1417.19 560.507 1416.64C558.304 1415.36 538.658 1379.28 538.475 1375.8C538.291 1372.32 523.236 1338.07 520.298 1334.59C516.994 1330.74 516.443 1330.56 508.915 1332.94C504.509 1334.4 496.063 1336.05 490.188 1336.6C479.172 1337.52 478.805 1337.34 470.91 1327.81C469.625 1326.16 465.586 1324.88 461.73 1324.88C455.304 1324.88 439.331 1319.02 439.331 1316.64C439.331 1315.91 440.249 1313.89 441.167 1312.06C442.819 1309.13 442.268 1308.03 438.046 1306.02C435.108 1304.55 430.334 1302.72 427.03 1302.17C419.502 1300.52 413.443 1294.66 406.283 1282.21C399.122 1269.38 397.654 1268.1 383.7 1264.62L372.317 1261.69L371.95 1245.39C371.582 1221.76 370.481 1220.66 357.996 1229.09Z" fill="#415483"/>
<path d="M19.2506 1377.81C15.9458 1378.73 12.641 1379.83 12.0902 1380.56C10.9886 1381.66 32.4698 1414.99 44.4038 1430.93L49.1774 1437.15L50.0954 1431.84C51.3806 1424.15 61.4786 1421.77 72.311 1426.53C83.5106 1431.66 87.5498 1441.73 85.163 1458.95C83.5106 1471.22 79.655 1478.73 74.8814 1478.73C73.7798 1478.73 70.475 1476.17 67.5374 1473.24C62.213 1467.74 57.4394 1466.09 57.4394 1469.57C57.4394 1472.5 70.8422 1489.72 78.737 1497.23C82.7762 1500.89 89.2022 1505.66 93.0578 1508.04L100.218 1512.25L98.933 1547.23C98.1986 1566.28 96.7298 1583.5 95.8118 1585.33C92.1398 1592.1 70.475 1599.8 64.967 1596.13C63.6818 1595.4 61.8458 1590.64 60.9278 1585.69C58.541 1572.87 50.279 1556.57 39.263 1542.84C23.4734 1523.24 20.3522 1521.77 7.68384 1528.18L0.339844 1532.03L5.84784 1539.72C8.78544 1543.93 15.0278 1551.08 19.8014 1555.66C30.4502 1565.91 32.4698 1569.58 36.3254 1587.71C38.1614 1595.77 41.2826 1605.84 43.4858 1610.05C48.6266 1620.13 95.8118 1672.88 106.644 1680.75C111.418 1684.23 121.883 1689.18 130.145 1691.92C140.977 1695.4 146.669 1698.52 151.259 1703.28C159.888 1712.26 188.346 1728.74 201.565 1732.4C223.414 1738.63 229.656 1742.48 234.797 1752.92C239.938 1763.17 246.547 1769.22 249.669 1766.1C252.423 1763.36 266.927 1773.61 266.009 1777.64C265.275 1781.31 269.681 1782.77 282.349 1782.77C287.49 1782.77 292.815 1783.87 294.283 1785.15C295.752 1786.43 304.014 1801.09 312.276 1817.75C320.722 1834.6 329.902 1850.54 332.839 1853.29L338.164 1858.23L328.984 1867.39C324.027 1872.33 319.987 1877.46 319.987 1878.74C319.987 1881.67 323.843 1883.51 329.718 1883.51C335.593 1883.51 345.508 1890.1 347.527 1895.23C348.629 1898.52 351.567 1900.36 357.075 1901.82C371.946 1905.85 372.681 1906.58 374.7 1915.74C376.353 1923.07 375.985 1927.28 372.13 1941.38C368.458 1956.04 364.969 1966.48 359.645 1978.93C358.727 1981.13 359.829 1982.59 363.868 1984.24C366.989 1985.52 369.559 1986.81 369.559 1987.17C369.559 1987.72 367.54 1993.03 364.969 1999.26C360.747 2009.52 358.727 2024.54 361.481 2024.54C362.032 2024.54 364.969 2022.89 367.907 2020.69L373.231 2017.03L393.795 2023.62C417.112 2031.13 435.288 2040.29 444.835 2049.26C452.73 2056.59 457.871 2059.34 463.93 2059.34C468.153 2059.34 468.703 2058.6 468.703 2052.93C468.703 2043.22 474.395 2038.46 484.493 2039.74L492.571 2040.65V2034.61C492.571 2029.85 493.857 2027.47 498.263 2024.17C511.482 2014.1 518.275 2007.5 518.275 2004.39C518.275 2002.74 515.705 1996.51 512.584 1990.65C507.259 1980.58 507.076 1979.66 509.095 1971.97C511.115 1965.01 511.115 1963.55 508.177 1960.43C505.24 1957.13 505.056 1956.22 507.259 1952.19C508.912 1949.26 511.299 1947.61 514.053 1947.61C518.275 1947.61 518.275 1947.43 515.705 1943.58C513.869 1941.02 512.767 1935.52 512.767 1928.2C512.767 1915.19 509.646 1910.98 500.099 1910.98C490.735 1910.98 487.063 1908.05 487.063 1900.91C487.063 1897.06 485.411 1892.85 482.657 1889.55C476.965 1882.59 472.926 1874.71 471.457 1867.02C470.539 1862.08 467.051 1857.68 457.137 1848.52C449.793 1841.93 441.531 1835.89 438.777 1835.15C435.655 1834.42 423.538 1824.16 408.483 1809.51C384.615 1786.43 382.595 1784.97 372.681 1782.77C364.602 1780.94 360.563 1780.76 355.055 1782.4C339.449 1787.17 336.511 1784.42 325.863 1756.95C321.823 1746.32 315.948 1733.5 312.827 1728.74C309.706 1723.79 307.135 1718.3 307.135 1716.47C307.135 1714.64 304.932 1707.86 302.178 1701.27C298.69 1692.47 295.018 1687.53 289.326 1682.77C279.779 1674.89 276.474 1669.76 279.412 1666.83C282.9 1663.35 281.615 1655.48 275.74 1644.49C270.783 1635.15 270.415 1633.68 272.802 1631.3C275.189 1628.92 274.638 1627.64 268.396 1621.04C252.423 1604.01 239.203 1588.62 239.203 1587.16C239.203 1586.24 242.692 1582.03 246.731 1577.64C255.727 1568.29 260.134 1558.77 258.481 1552.54C257.931 1549.98 255.36 1544.85 252.79 1540.82C248.934 1534.41 247.465 1533.68 241.039 1533.68C230.391 1533.68 228.738 1530.2 229.473 1508.22L230.023 1490.09L224.515 1488.8C219.191 1487.71 219.007 1487.34 220.109 1480.38C221.578 1471.77 217.355 1464.08 211.113 1464.08C208.909 1464.08 205.421 1462.8 203.585 1461.33C201.565 1459.87 198.261 1458.58 196.241 1458.58C194.038 1458.58 188.53 1455.84 183.756 1452.36C176.963 1447.59 172.557 1446.13 163.56 1445.21C147.954 1443.75 146.118 1442.83 143.731 1435.51C141.712 1429.83 140.977 1429.28 134.368 1429.28C127.758 1429.28 127.024 1428.73 125.922 1423.6C125.004 1419.02 123.168 1417.19 115.457 1413.71C110.316 1411.33 103.89 1408.77 101.136 1408.22C97.2806 1407.48 95.9954 1406.2 95.9954 1402.9C95.9954 1399.97 93.6086 1396.49 88.6514 1392.65C84.6122 1389.53 81.3074 1385.5 81.3074 1384.04C81.3074 1382.57 80.2058 1381.66 79.1042 1382.21C63.3146 1388.07 64.049 1387.89 53.033 1382.57C41.8334 1377.08 29.165 1375.43 19.2506 1377.81Z" fill="#8BC2FC"/>
<path d="M311.541 1465.91C309.338 1466.83 305.483 1471.04 302.912 1475.62C300.158 1480.01 293.916 1486.97 288.775 1490.82C281.064 1496.68 277.759 1501.26 269.313 1517.74C262.52 1530.93 258.297 1537.34 256.645 1536.61C255.176 1536.06 255.911 1538.81 258.665 1543.39C261.051 1547.6 263.071 1553.09 263.071 1555.66C263.071 1560.97 254.258 1576.9 248.567 1582.03C246.547 1584.05 244.711 1586.43 244.711 1587.34C244.711 1588.44 249.117 1593.94 254.442 1599.8C259.583 1605.48 266.559 1612.98 269.497 1616.46C272.618 1619.76 276.657 1623.42 278.677 1624.52C282.349 1626.54 282.349 1626.72 278.861 1630.57C275.372 1634.41 275.372 1634.6 279.779 1643.21C282.9 1649.25 284.185 1654.93 284.185 1662.44C284.185 1672.88 284.552 1673.43 292.814 1680.75C299.057 1686.25 302.729 1691.74 306.217 1700.17C308.787 1706.76 310.807 1713.35 310.807 1715C310.807 1716.65 313.194 1721.6 316.131 1726.17C319.069 1730.75 324.944 1743.76 329.167 1754.93C338.714 1779.66 341.101 1782.4 351.015 1779.47C360.379 1776.54 366.805 1776.73 377.637 1780.02C385.165 1782.4 390.673 1786.62 411.053 1806.58C425.741 1820.87 437.491 1830.76 440.612 1831.49C443.366 1832.22 451.995 1838.63 459.707 1845.59C472.008 1856.77 474.027 1859.33 475.863 1867.75C477.149 1872.88 480.637 1880.21 483.758 1884.42C487.43 1888.63 490.001 1894.5 490.735 1899.07C491.653 1906.22 491.837 1906.4 500.282 1907.32C513.318 1908.96 516.439 1912.81 516.439 1927.1C516.439 1941.75 520.111 1947.61 532.412 1952.19C537.186 1954.02 542.143 1956.22 543.428 1957.13C544.53 1958.05 548.018 1959.52 550.956 1960.25C555.729 1961.71 557.198 1961.16 561.054 1957.13C567.113 1950.54 569.683 1941.93 568.031 1934.42C566.011 1926 547.1 1895.59 537.002 1884.42C528.924 1875.63 528.373 1874.35 524.517 1854.2C522.314 1842.66 519.927 1831.49 519.193 1829.29C518.091 1826 518.826 1825.26 523.783 1824.16C527.088 1823.61 535.35 1823.06 542.327 1823.06C555.729 1823.06 560.503 1820.5 560.503 1813.36C560.503 1808.6 568.031 1792.11 573.539 1784.24C578.496 1777.28 584.371 1775.08 598.141 1774.53C604.2 1774.35 612.278 1773.06 616.134 1771.41C621.825 1769.22 625.314 1769.03 637.799 1770.87C653.955 1773.25 662.217 1772.33 672.866 1767.2L679.659 1763.91L673.784 1756.58C670.479 1752.55 660.932 1741.56 652.487 1732.04C641.103 1719.22 636.697 1712.62 634.861 1706.21C633.576 1701.45 629.537 1690.09 625.865 1680.75C617.97 1660.79 617.603 1654.93 623.845 1647.6C629.537 1640.82 629.537 1639.91 624.029 1639.91C615.583 1639.91 613.931 1637.71 608.055 1620.13C602.364 1602.91 602.18 1602.36 604.751 1591.56C608.239 1576.72 606.77 1566.65 599.426 1557.67C591.531 1547.78 590.43 1541.55 595.203 1532.03L598.875 1524.15L581.066 1525.44C571.335 1526.17 562.523 1527.45 561.421 1528.37C560.503 1529.28 559.952 1533.86 560.319 1538.44C561.054 1549.8 557.382 1554.56 546.366 1557.31C530.393 1561.33 525.619 1564.63 523.232 1573.42C521.029 1582.03 519.744 1582.4 508.911 1578.92C497.712 1575.25 494.958 1572.14 447.589 1509.32C442.448 1502.36 440.061 1500.71 435.471 1500.71C429.229 1500.71 419.131 1496.13 419.131 1493.2C419.131 1490.27 410.502 1482.39 407.197 1482.39C405.728 1482.39 404.443 1483.49 404.443 1484.78C404.443 1489.9 400.404 1491.55 394.712 1488.44C391.224 1486.79 386.817 1486.06 382.778 1486.79C378.005 1487.52 373.782 1486.42 366.071 1482.58C359.645 1479.28 351.566 1477.08 344.589 1476.35C337.245 1475.8 331.003 1473.97 326.229 1471.04C322.374 1468.66 318.335 1466.09 317.233 1465.54C316.315 1464.99 313.745 1465.18 311.541 1465.91Z" fill="#2278CF"/>
</svg>
